<svg version="1.1" xmlns="http://www.w3.org/2000/svg" xmlns:xlink="http://www.w3.org/1999/xlink" width="716" height="796"><defs/><g><text fill="#eeeeee" stroke="none" font-family="Arial" font-size="24px" font-style="normal" font-weight="normal" text-decoration="none" x="0" y="0">UNREGISTERED</text><text fill="#eeeeee" stroke="none" font-family="Arial" font-size="24px" font-style="normal" font-weight="normal" text-decoration="none" x="0" y="30">UNREGISTERED</text><text fill="#eeeeee" stroke="none" font-family="Arial" font-size="24px" font-style="normal" font-weight="normal" text-decoration="none" x="0" y="60">UNREGISTERED</text><text fill="#eeeeee" stroke="none" font-family="Arial" font-size="24px" font-style="normal" font-weight="normal" text-decoration="none" x="0" y="90">UNREGISTERED</text><text fill="#eeeeee" stroke="none" font-family="Arial" font-size="24px" font-style="normal" font-weight="normal" text-decoration="none" x="0" y="120">UNREGISTERED</text><text fill="#eeeeee" stroke="none" font-family="Arial" font-size="24px" font-style="normal" font-weight="normal" text-decoration="none" x="0" y="150">UNREGISTERED</text><text fill="#eeeeee" stroke="none" font-family="Arial" font-size="24px" font-style="normal" font-weight="normal" text-decoration="none" x="0" y="180">UNREGISTERED</text><text fill="#eeeeee" stroke="none" font-family="Arial" font-size="24px" font-style="normal" font-weight="normal" text-decoration="none" x="0" y="210">UNREGISTERED</text><text fill="#eeeeee" stroke="none" font-family="Arial" font-size="24px" font-style="normal" font-weight="normal" text-decoration="none" x="0" y="240">UNREGISTERED</text><text fill="#eeeeee" stroke="none" font-family="Arial" font-size="24px" font-style="normal" font-weight="normal" text-decoration="none" x="0" y="270">UNREGISTERED</text><text fill="#eeeeee" stroke="none" font-family="Arial" font-size="24px" font-style="normal" font-weight="normal" text-decoration="none" x="0" y="300">UNREGISTERED</text><text fill="#eeeeee" stroke="none" font-family="Arial" font-size="24px" font-style="normal" font-weight="normal" text-decoration="none" x="0" y="330">UNREGISTERED</text><text fill="#eeeeee" stroke="none" font-family="Arial" font-size="24px" font-style="normal" font-weight="normal" text-decoration="none" x="0" y="360">UNREGISTERED</text><text fill="#eeeeee" stroke="none" font-family="Arial" font-size="24px" font-style="normal" font-weight="normal" text-decoration="none" x="0" y="390">UNREGISTERED</text><text fill="#eeeeee" stroke="none" font-family="Arial" font-size="24px" font-style="normal" font-weight="normal" text-decoration="none" x="0" y="420">UNREGISTERED</text><text fill="#eeeeee" stroke="none" font-family="Arial" font-size="24px" font-style="normal" font-weight="normal" text-decoration="none" x="0" y="450">UNREGISTERED</text><text fill="#eeeeee" stroke="none" font-family="Arial" font-size="24px" font-style="normal" font-weight="normal" text-decoration="none" x="0" y="480">UNREGISTERED</text><text fill="#eeeeee" stroke="none" font-family="Arial" font-size="24px" font-style="normal" font-weight="normal" text-decoration="none" x="0" y="510">UNREGISTERED</text><text fill="#eeeeee" stroke="none" font-family="Arial" font-size="24px" font-style="normal" font-weight="normal" text-decoration="none" x="0" y="540">UNREGISTERED</text><text fill="#eeeeee" stroke="none" font-family="Arial" font-size="24px" font-style="normal" font-weight="normal" text-decoration="none" x="0" y="570">UNREGISTERED</text><text fill="#eeeeee" stroke="none" font-family="Arial" font-size="24px" font-style="normal" font-weight="normal" text-decoration="none" x="0" y="600">UNREGISTERED</text><text fill="#eeeeee" stroke="none" font-family="Arial" font-size="24px" font-style="normal" font-weight="normal" text-decoration="none" x="0" y="630">UNREGISTERED</text><text fill="#eeeeee" stroke="none" font-family="Arial" font-size="24px" font-style="normal" font-weight="normal" text-decoration="none" x="0" y="660">UNREGISTERED</text><text fill="#eeeeee" stroke="none" font-family="Arial" font-size="24px" font-style="normal" font-weight="normal" text-decoration="none" x="0" y="690">UNREGISTERED</text><text fill="#eeeeee" stroke="none" font-family="Arial" font-size="24px" font-style="normal" font-weight="normal" text-decoration="none" x="0" y="720">UNREGISTERED</text><text fill="#eeeeee" stroke="none" font-family="Arial" font-size="24px" font-style="normal" font-weight="normal" text-decoration="none" x="0" y="750">UNREGISTERED</text><text fill="#eeeeee" stroke="none" font-family="Arial" font-size="24px" font-style="normal" font-weight="normal" text-decoration="none" x="0" y="780">UNREGISTERED</text><text fill="#eeeeee" stroke="none" font-family="Arial" font-size="24px" font-style="normal" font-weight="normal" text-decoration="none" x="200" y="0">UNREGISTERED</text><text fill="#eeeeee" stroke="none" font-family="Arial" font-size="24px" font-style="normal" font-weight="normal" text-decoration="none" x="200" y="30">UNREGISTERED</text><text fill="#eeeeee" stroke="none" font-family="Arial" font-size="24px" font-style="normal" font-weight="normal" text-decoration="none" x="200" y="60">UNREGISTERED</text><text fill="#eeeeee" stroke="none" font-family="Arial" font-size="24px" font-style="normal" font-weight="normal" text-decoration="none" x="200" y="90">UNREGISTERED</text><text fill="#eeeeee" stroke="none" font-family="Arial" font-size="24px" font-style="normal" font-weight="normal" text-decoration="none" x="200" y="120">UNREGISTERED</text><text fill="#eeeeee" stroke="none" font-family="Arial" font-size="24px" font-style="normal" font-weight="normal" text-decoration="none" x="200" y="150">UNREGISTERED</text><text fill="#eeeeee" stroke="none" font-family="Arial" font-size="24px" font-style="normal" font-weight="normal" text-decoration="none" x="200" y="180">UNREGISTERED</text><text fill="#eeeeee" stroke="none" font-family="Arial" font-size="24px" font-style="normal" font-weight="normal" text-decoration="none" x="200" y="210">UNREGISTERED</text><text fill="#eeeeee" stroke="none" font-family="Arial" font-size="24px" font-style="normal" font-weight="normal" text-decoration="none" x="200" y="240">UNREGISTERED</text><text fill="#eeeeee" stroke="none" font-family="Arial" font-size="24px" font-style="normal" font-weight="normal" text-decoration="none" x="200" y="270">UNREGISTERED</text><text fill="#eeeeee" stroke="none" font-family="Arial" font-size="24px" font-style="normal" font-weight="normal" text-decoration="none" x="200" y="300">UNREGISTERED</text><text fill="#eeeeee" stroke="none" font-family="Arial" font-size="24px" font-style="normal" font-weight="normal" text-decoration="none" x="200" y="330">UNREGISTERED</text><text fill="#eeeeee" stroke="none" font-family="Arial" font-size="24px" font-style="normal" font-weight="normal" text-decoration="none" x="200" y="360">UNREGISTERED</text><text fill="#eeeeee" stroke="none" font-family="Arial" font-size="24px" font-style="normal" font-weight="normal" text-decoration="none" x="200" y="390">UNREGISTERED</text><text fill="#eeeeee" stroke="none" font-family="Arial" font-size="24px" font-style="normal" font-weight="normal" text-decoration="none" x="200" y="420">UNREGISTERED</text><text fill="#eeeeee" stroke="none" font-family="Arial" font-size="24px" font-style="normal" font-weight="normal" text-decoration="none" x="200" y="450">UNREGISTERED</text><text fill="#eeeeee" stroke="none" font-family="Arial" font-size="24px" font-style="normal" font-weight="normal" text-decoration="none" x="200" y="480">UNREGISTERED</text><text fill="#eeeeee" stroke="none" font-family="Arial" font-size="24px" font-style="normal" font-weight="normal" text-decoration="none" x="200" y="510">UNREGISTERED</text><text fill="#eeeeee" stroke="none" font-family="Arial" font-size="24px" font-style="normal" font-weight="normal" text-decoration="none" x="200" y="540">UNREGISTERED</text><text fill="#eeeeee" stroke="none" font-family="Arial" font-size="24px" font-style="normal" font-weight="normal" text-decoration="none" x="200" y="570">UNREGISTERED</text><text fill="#eeeeee" stroke="none" font-family="Arial" font-size="24px" font-style="normal" font-weight="normal" text-decoration="none" x="200" y="600">UNREGISTERED</text><text fill="#eeeeee" stroke="none" font-family="Arial" font-size="24px" font-style="normal" font-weight="normal" text-decoration="none" x="200" y="630">UNREGISTERED</text><text fill="#eeeeee" stroke="none" font-family="Arial" font-size="24px" font-style="normal" font-weight="normal" text-decoration="none" x="200" y="660">UNREGISTERED</text><text fill="#eeeeee" stroke="none" font-family="Arial" font-size="24px" font-style="normal" font-weight="normal" text-decoration="none" x="200" y="690">UNREGISTERED</text><text fill="#eeeeee" stroke="none" font-family="Arial" font-size="24px" font-style="normal" font-weight="normal" text-decoration="none" x="200" y="720">UNREGISTERED</text><text fill="#eeeeee" stroke="none" font-family="Arial" font-size="24px" font-style="normal" font-weight="normal" text-decoration="none" x="200" y="750">UNREGISTERED</text><text fill="#eeeeee" stroke="none" font-family="Arial" font-size="24px" font-style="normal" font-weight="normal" text-decoration="none" x="200" y="780">UNREGISTERED</text><text fill="#eeeeee" stroke="none" font-family="Arial" font-size="24px" font-style="normal" font-weight="normal" text-decoration="none" x="400" y="0">UNREGISTERED</text><text fill="#eeeeee" stroke="none" font-family="Arial" font-size="24px" font-style="normal" font-weight="normal" text-decoration="none" x="400" y="30">UNREGISTERED</text><text fill="#eeeeee" stroke="none" font-family="Arial" font-size="24px" font-style="normal" font-weight="normal" text-decoration="none" x="400" y="60">UNREGISTERED</text><text fill="#eeeeee" stroke="none" font-family="Arial" font-size="24px" font-style="normal" font-weight="normal" text-decoration="none" x="400" y="90">UNREGISTERED</text><text fill="#eeeeee" stroke="none" font-family="Arial" font-size="24px" font-style="normal" font-weight="normal" text-decoration="none" x="400" y="120">UNREGISTERED</text><text fill="#eeeeee" stroke="none" font-family="Arial" font-size="24px" font-style="normal" font-weight="normal" text-decoration="none" x="400" y="150">UNREGISTERED</text><text fill="#eeeeee" stroke="none" font-family="Arial" font-size="24px" font-style="normal" font-weight="normal" text-decoration="none" x="400" y="180">UNREGISTERED</text><text fill="#eeeeee" stroke="none" font-family="Arial" font-size="24px" font-style="normal" font-weight="normal" text-decoration="none" x="400" y="210">UNREGISTERED</text><text fill="#eeeeee" stroke="none" font-family="Arial" font-size="24px" font-style="normal" font-weight="normal" text-decoration="none" x="400" y="240">UNREGISTERED</text><text fill="#eeeeee" stroke="none" font-family="Arial" font-size="24px" font-style="normal" font-weight="normal" text-decoration="none" x="400" y="270">UNREGISTERED</text><text fill="#eeeeee" stroke="none" font-family="Arial" font-size="24px" font-style="normal" font-weight="normal" text-decoration="none" x="400" y="300">UNREGISTERED</text><text fill="#eeeeee" stroke="none" font-family="Arial" font-size="24px" font-style="normal" font-weight="normal" text-decoration="none" x="400" y="330">UNREGISTERED</text><text fill="#eeeeee" stroke="none" font-family="Arial" font-size="24px" font-style="normal" font-weight="normal" text-decoration="none" x="400" y="360">UNREGISTERED</text><text fill="#eeeeee" stroke="none" font-family="Arial" font-size="24px" font-style="normal" font-weight="normal" text-decoration="none" x="400" y="390">UNREGISTERED</text><text fill="#eeeeee" stroke="none" font-family="Arial" font-size="24px" font-style="normal" font-weight="normal" text-decoration="none" x="400" y="420">UNREGISTERED</text><text fill="#eeeeee" stroke="none" font-family="Arial" font-size="24px" font-style="normal" font-weight="normal" text-decoration="none" x="400" y="450">UNREGISTERED</text><text fill="#eeeeee" stroke="none" font-family="Arial" font-size="24px" font-style="normal" font-weight="normal" text-decoration="none" x="400" y="480">UNREGISTERED</text><text fill="#eeeeee" stroke="none" font-family="Arial" font-size="24px" font-style="normal" font-weight="normal" text-decoration="none" x="400" y="510">UNREGISTERED</text><text fill="#eeeeee" stroke="none" font-family="Arial" font-size="24px" font-style="normal" font-weight="normal" text-decoration="none" x="400" y="540">UNREGISTERED</text><text fill="#eeeeee" stroke="none" font-family="Arial" font-size="24px" font-style="normal" font-weight="normal" text-decoration="none" x="400" y="570">UNREGISTERED</text><text fill="#eeeeee" stroke="none" font-family="Arial" font-size="24px" font-style="normal" font-weight="normal" text-decoration="none" x="400" y="600">UNREGISTERED</text><text fill="#eeeeee" stroke="none" font-family="Arial" font-size="24px" font-style="normal" font-weight="normal" text-decoration="none" x="400" y="630">UNREGISTERED</text><text fill="#eeeeee" stroke="none" font-family="Arial" font-size="24px" font-style="normal" font-weight="normal" text-decoration="none" x="400" y="660">UNREGISTERED</text><text fill="#eeeeee" stroke="none" font-family="Arial" font-size="24px" font-style="normal" font-weight="normal" text-decoration="none" x="400" y="690">UNREGISTERED</text><text fill="#eeeeee" stroke="none" font-family="Arial" font-size="24px" font-style="normal" font-weight="normal" text-decoration="none" x="400" y="720">UNREGISTERED</text><text fill="#eeeeee" stroke="none" font-family="Arial" font-size="24px" font-style="normal" font-weight="normal" text-decoration="none" x="400" y="750">UNREGISTERED</text><text fill="#eeeeee" stroke="none" font-family="Arial" font-size="24px" font-style="normal" font-weight="normal" text-decoration="none" x="400" y="780">UNREGISTERED</text><text fill="#eeeeee" stroke="none" font-family="Arial" font-size="24px" font-style="normal" font-weight="normal" text-decoration="none" x="600" y="0">UNREGISTERED</text><text fill="#eeeeee" stroke="none" font-family="Arial" font-size="24px" font-style="normal" font-weight="normal" text-decoration="none" x="600" y="30">UNREGISTERED</text><text fill="#eeeeee" stroke="none" font-family="Arial" font-size="24px" font-style="normal" font-weight="normal" text-decoration="none" x="600" y="60">UNREGISTERED</text><text fill="#eeeeee" stroke="none" font-family="Arial" font-size="24px" font-style="normal" font-weight="normal" text-decoration="none" x="600" y="90">UNREGISTERED</text><text fill="#eeeeee" stroke="none" font-family="Arial" font-size="24px" font-style="normal" font-weight="normal" text-decoration="none" x="600" y="120">UNREGISTERED</text><text fill="#eeeeee" stroke="none" font-family="Arial" font-size="24px" font-style="normal" font-weight="normal" text-decoration="none" x="600" y="150">UNREGISTERED</text><text fill="#eeeeee" stroke="none" font-family="Arial" font-size="24px" font-style="normal" font-weight="normal" text-decoration="none" x="600" y="180">UNREGISTERED</text><text fill="#eeeeee" stroke="none" font-family="Arial" font-size="24px" font-style="normal" font-weight="normal" text-decoration="none" x="600" y="210">UNREGISTERED</text><text fill="#eeeeee" stroke="none" font-family="Arial" font-size="24px" font-style="normal" font-weight="normal" text-decoration="none" x="600" y="240">UNREGISTERED</text><text fill="#eeeeee" stroke="none" font-family="Arial" font-size="24px" font-style="normal" font-weight="normal" text-decoration="none" x="600" y="270">UNREGISTERED</text><text fill="#eeeeee" stroke="none" font-family="Arial" font-size="24px" font-style="normal" font-weight="normal" text-decoration="none" x="600" y="300">UNREGISTERED</text><text fill="#eeeeee" stroke="none" font-family="Arial" font-size="24px" font-style="normal" font-weight="normal" text-decoration="none" x="600" y="330">UNREGISTERED</text><text fill="#eeeeee" stroke="none" font-family="Arial" font-size="24px" font-style="normal" font-weight="normal" text-decoration="none" x="600" y="360">UNREGISTERED</text><text fill="#eeeeee" stroke="none" font-family="Arial" font-size="24px" font-style="normal" font-weight="normal" text-decoration="none" x="600" y="390">UNREGISTERED</text><text fill="#eeeeee" stroke="none" font-family="Arial" font-size="24px" font-style="normal" font-weight="normal" text-decoration="none" x="600" y="420">UNREGISTERED</text><text fill="#eeeeee" stroke="none" font-family="Arial" font-size="24px" font-style="normal" font-weight="normal" text-decoration="none" x="600" y="450">UNREGISTERED</text><text fill="#eeeeee" stroke="none" font-family="Arial" font-size="24px" font-style="normal" font-weight="normal" text-decoration="none" x="600" y="480">UNREGISTERED</text><text fill="#eeeeee" stroke="none" font-family="Arial" font-size="24px" font-style="normal" font-weight="normal" text-decoration="none" x="600" y="510">UNREGISTERED</text><text fill="#eeeeee" stroke="none" font-family="Arial" font-size="24px" font-style="normal" font-weight="normal" text-decoration="none" x="600" y="540">UNREGISTERED</text><text fill="#eeeeee" stroke="none" font-family="Arial" font-size="24px" font-style="normal" font-weight="normal" text-decoration="none" x="600" y="570">UNREGISTERED</text><text fill="#eeeeee" stroke="none" font-family="Arial" font-size="24px" font-style="normal" font-weight="normal" text-decoration="none" x="600" y="600">UNREGISTERED</text><text fill="#eeeeee" stroke="none" font-family="Arial" font-size="24px" font-style="normal" font-weight="normal" text-decoration="none" x="600" y="630">UNREGISTERED</text><text fill="#eeeeee" stroke="none" font-family="Arial" font-size="24px" font-style="normal" font-weight="normal" text-decoration="none" x="600" y="660">UNREGISTERED</text><text fill="#eeeeee" stroke="none" font-family="Arial" font-size="24px" font-style="normal" font-weight="normal" text-decoration="none" x="600" y="690">UNREGISTERED</text><text fill="#eeeeee" stroke="none" font-family="Arial" font-size="24px" font-style="normal" font-weight="normal" text-decoration="none" x="600" y="720">UNREGISTERED</text><text fill="#eeeeee" stroke="none" font-family="Arial" font-size="24px" font-style="normal" font-weight="normal" text-decoration="none" x="600" y="750">UNREGISTERED</text><text fill="#eeeeee" stroke="none" font-family="Arial" font-size="24px" font-style="normal" font-weight="normal" text-decoration="none" x="600" y="780">UNREGISTERED</text><g transform="translate(2,-30) scale(1,1)"><rect fill="#ffffff" stroke="none" x="120" y="48" width="153.91943359375" height="32"/></g><g transform="translate(2,-30) scale(1,1)"><path fill="none" stroke="#000000" d="M 120 48 L 273.91943359375 48 L 273.91943359375 80 L 120 80 L 120 48 Z Z" stroke-miterlimit="10"/></g><g transform="translate(2,-30) scale(1,1)"><g><path fill="none" stroke="none"/><text fill="#000000" stroke="none" font-family="Arial" font-size="13px" font-style="normal" font-weight="normal" text-decoration="none" x="136.279296875" y="70.5">Thread#start()の実行</text></g></g><g transform="translate(2,-30) scale(1,1)"><path fill="#ffffff" stroke="none" d="M 336 40 L 596.2939453125 40 L 606.2939453125 50 L 606.2939453125 78 L 336 78 L 336 40"/></g><g transform="translate(2,-30) scale(1,1)"><path fill="none" stroke="#000000" d="M 336 40 L 596.2939453125 40 L 606.2939453125 50 L 606.2939453125 78 L 336 78 L 336 40 L 336 40" stroke-miterlimit="10"/></g><g transform="translate(2,-30) scale(1,1)"><path fill="none" stroke="#000000" d="M 596.2939453125 40 L 596.2939453125 50 L 606.2939453125 50 L 596.2939453125 40" stroke-miterlimit="10"/></g><g transform="translate(2,-30) scale(1,1)"><g><path fill="none" stroke="none"/><text fill="#000000" stroke="none" font-family="Arial" font-size="13px" font-style="normal" font-weight="normal" text-decoration="none" x="341" y="58">TextRpgGameEngine#run()が実行される</text></g></g><g transform="translate(2,-30) scale(1,1)"><path fill="none" stroke="#000000" d="M 335 61 L 275 63" stroke-miterlimit="10" stroke-dasharray="3"/></g><g transform="translate(2,-30) scale(1,1)"><rect fill="#ffffff" stroke="none" x="104" y="120" width="175.076171875" height="32"/></g><g transform="translate(2,-30) scale(1,1)"><path fill="none" stroke="#000000" d="M 104 120 L 279.076171875 120 L 279.076171875 152 L 104 152 L 104 120 Z Z" stroke-miterlimit="10"/></g><g transform="translate(2,-30) scale(1,1)"><g><path fill="none" stroke="none"/><text fill="#000000" stroke="none" font-family="Arial" font-size="13px" font-style="normal" font-weight="normal" text-decoration="none" x="120.75537109375" y="142.5">title.txtの読み込みと表示</text></g></g><g transform="translate(2,-30) scale(1,1)"><rect fill="#ffffff" stroke="none" x="56" y="272" width="390.22998046875" height="45"/></g><g transform="translate(2,-30) scale(1,1)"><path fill="none" stroke="#000000" d="M 56 272 L 446.22998046875 272 L 446.22998046875 317 L 56 317 L 56 272 Z Z" stroke-miterlimit="10"/></g><g transform="translate(2,-30) scale(1,1)"><g><path fill="none" stroke="none"/><text fill="#000000" stroke="none" font-family="Arial" font-size="13px" font-style="normal" font-weight="normal" text-decoration="none" x="72" y="294.5">プレーヤー生成シーン実行、次シーンインデックスを1に設定</text></g></g><g transform="translate(2,-30) scale(1,1)"><path fill="#ffffff" stroke="none" d="M 96 206.5 L 186.5 192 L 277 206.5 L 186.5 221 L 96 206.5"/></g><g transform="translate(2,-30) scale(1,1)"><path fill="none" stroke="#000000" d="M 96 206.5 L 186.5 192 L 277 206.5 L 186.5 221 L 96 206.5 L 96 206.5" stroke-miterlimit="10"/></g><g transform="translate(2,-30) scale(1,1)"><g><path fill="none" stroke="none"/><text fill="#000000" stroke="none" font-family="Arial" font-size="13px" font-style="normal" font-weight="normal" text-decoration="none" x="141" y="213">ゲーム開始選択</text></g></g><g transform="translate(2,-30) scale(1,1)"><path fill="none" stroke="#000000" d="M 172 80 L 172 120" stroke-miterlimit="10"/></g><g transform="translate(2,-30) scale(1,1)"><path fill="#000000" stroke="none" d="M 167.790482243984 109.83732514237585 L 172 120 L 176.209517756016 109.83732514237585"/></g><g transform="translate(2,-30) scale(1,1)"><path fill="none" stroke="#000000" d="M 167.790482243984 109.83732514237585 L 172 120 L 176.209517756016 109.83732514237585 L 167.790482243984 109.83732514237585" stroke-miterlimit="10"/></g><g transform="translate(2,-30) scale(1,1)"><path fill="none" stroke="#000000" d="M 194 152 L 194 192" stroke-miterlimit="10"/></g><g transform="translate(2,-30) scale(1,1)"><path fill="#000000" stroke="none" d="M 189.790482243984 181.83732514237585 L 194 192 L 198.209517756016 181.83732514237585"/></g><g transform="translate(2,-30) scale(1,1)"><path fill="none" stroke="#000000" d="M 189.790482243984 181.83732514237585 L 194 192 L 198.209517756016 181.83732514237585 L 189.790482243984 181.83732514237585" stroke-miterlimit="10"/></g><g transform="translate(2,-30) scale(1,1)"><path fill="none" stroke="#000000" d="M 184 221 L 184 272" stroke-miterlimit="10"/></g><g transform="translate(2,-30) scale(1,1)"><path fill="#000000" stroke="none" d="M 179.790482243984 261.83732514237585 L 184 272 L 188.209517756016 261.83732514237585"/></g><g transform="translate(2,-30) scale(1,1)"><path fill="none" stroke="#000000" d="M 179.790482243984 261.83732514237585 L 184 272 L 188.209517756016 261.83732514237585 L 179.790482243984 261.83732514237585" stroke-miterlimit="10"/></g><g transform="translate(2,-30) scale(1,1)"><g><path fill="none" stroke="none"/><text fill="#000000" stroke="none" font-family="Arial" font-size="13px" font-style="normal" font-weight="normal" text-decoration="none" x="185.5693359375" y="251.5">start</text></g></g><g transform="translate(2,-30) scale(1,1)"><rect fill="#ffffff" stroke="none" x="320" y="184" width="73.18994140625" height="32"/></g><g transform="translate(2,-30) scale(1,1)"><path fill="none" stroke="#000000" d="M 320 184 L 393.18994140625 184 L 393.18994140625 216 L 320 216 L 320 184 Z Z" stroke-miterlimit="10"/></g><g transform="translate(2,-30) scale(1,1)"><g><path fill="none" stroke="none"/><text fill="#000000" stroke="none" font-family="Arial" font-size="13px" font-style="normal" font-weight="normal" text-decoration="none" x="337.094970703125" y="206.5">未実装</text></g></g><g transform="translate(2,-30) scale(1,1)"><path fill="none" stroke="#000000" d="M 277 208 L 320 208" stroke-miterlimit="10"/></g><g transform="translate(2,-30) scale(1,1)"><path fill="#000000" stroke="none" d="M 309.83732514237585 212.209517756016 L 320 208 L 309.83732514237585 203.790482243984"/></g><g transform="translate(2,-30) scale(1,1)"><path fill="none" stroke="#000000" d="M 309.83732514237585 212.209517756016 L 320 208 L 309.83732514237585 203.790482243984 L 309.83732514237585 212.209517756016" stroke-miterlimit="10"/></g><g transform="translate(2,-30) scale(1,1)"><g><path fill="none" stroke="none"/><text fill="#000000" stroke="none" font-family="Arial" font-size="13px" font-style="normal" font-weight="normal" text-decoration="none" x="254.997802734375" y="187.5">continue</text></g></g><g transform="translate(2,-30) scale(1,1)"><path fill="#ffffff" stroke="none" d="M 440 224 L 552 224 L 562 234 L 562 262 L 440 262 L 440 224"/></g><g transform="translate(2,-30) scale(1,1)"><path fill="none" stroke="#000000" d="M 440 224 L 552 224 L 562 234 L 562 262 L 440 262 L 440 224 L 440 224" stroke-miterlimit="10"/></g><g transform="translate(2,-30) scale(1,1)"><path fill="none" stroke="#000000" d="M 552 224 L 552 234 L 562 234 L 552 224" stroke-miterlimit="10"/></g><g transform="translate(2,-30) scale(1,1)"><g><path fill="none" stroke="none"/><text fill="#000000" stroke="none" font-family="Arial" font-size="13px" font-style="normal" font-weight="normal" text-decoration="none" x="445" y="242">プレーヤーの生成</text></g></g><g transform="translate(2,-30) scale(1,1)"><path fill="none" stroke="#000000" d="M 364 271 L 439 256" stroke-miterlimit="10" stroke-dasharray="3"/></g><g transform="translate(2,-30) scale(1,1)"><rect fill="#ffffff" stroke="none" x="144" y="368" width="250.8291015625" height="32"/></g><g transform="translate(2,-30) scale(1,1)"><path fill="none" stroke="#000000" d="M 144 368 L 394.8291015625 368 L 394.8291015625 400 L 144 400 L 144 368 Z Z" stroke-miterlimit="10"/></g><g transform="translate(2,-30) scale(1,1)"><g><path fill="none" stroke="none"/><text fill="#000000" stroke="none" font-family="Arial" font-size="13px" font-style="normal" font-weight="normal" text-decoration="none" x="161.39013671875" y="390.5">TextRpgLogic#executeScene()の実行</text></g></g><g transform="translate(2,-30) scale(1,1)"><rect fill="#ffffff" stroke="none" x="72" y="440" width="383" height="32"/></g><g transform="translate(2,-30) scale(1,1)"><path fill="none" stroke="#000000" d="M 72 440 L 455 440 L 455 472 L 72 472 L 72 440 Z Z" stroke-miterlimit="10"/></g><g transform="translate(2,-30) scale(1,1)"><g><path fill="none" stroke="none"/><text fill="#000000" stroke="none" font-family="Arial" font-size="13px" font-style="normal" font-weight="normal" text-decoration="none" x="81.5" y="462.5">カレントシーンにセットされているシーンオブジェクトの実行</text></g></g><g transform="translate(2,-30) scale(1,1)"><rect fill="#ffffff" stroke="none" x="144" y="504" width="227" height="32"/></g><g transform="translate(2,-30) scale(1,1)"><path fill="none" stroke="#000000" d="M 144 504 L 371 504 L 371 536 L 144 536 L 144 504 Z Z" stroke-miterlimit="10"/></g><g transform="translate(2,-30) scale(1,1)"><g><path fill="none" stroke="none"/><text fill="#000000" stroke="none" font-family="Arial" font-size="13px" font-style="normal" font-weight="normal" text-decoration="none" x="153.5" y="526.5">次のシーンインデックスを取得する</text></g></g><g transform="translate(2,-30) scale(1,1)"><rect fill="#ffffff" stroke="none" x="40" y="784" width="448" height="32"/></g><g transform="translate(2,-30) scale(1,1)"><path fill="none" stroke="#000000" d="M 40 784 L 488 784 L 488 816 L 40 816 L 40 784 Z Z" stroke-miterlimit="10"/></g><g transform="translate(2,-30) scale(1,1)"><g><path fill="none" stroke="none"/><text fill="#000000" stroke="none" font-family="Arial" font-size="13px" font-style="normal" font-weight="normal" text-decoration="none" x="49.5" y="806.5">シーンリストより、対象のシーンオブジェクトをカレントシーンにセット</text></g></g><g transform="translate(2,-30) scale(1,1)"><path fill="none" stroke="#000000" d="M 254 317 L 254 368" stroke-miterlimit="10"/></g><g transform="translate(2,-30) scale(1,1)"><path fill="#000000" stroke="none" d="M 249.790482243984 357.83732514237585 L 254 368 L 258.209517756016 357.83732514237585"/></g><g transform="translate(2,-30) scale(1,1)"><path fill="none" stroke="#000000" d="M 249.790482243984 357.83732514237585 L 254 368 L 258.209517756016 357.83732514237585 L 249.790482243984 357.83732514237585" stroke-miterlimit="10"/></g><g transform="translate(2,-30) scale(1,1)"><path fill="none" stroke="#000000" d="M 261 400 L 261 440" stroke-miterlimit="10"/></g><g transform="translate(2,-30) scale(1,1)"><path fill="#000000" stroke="none" d="M 256.790482243984 429.83732514237585 L 261 440 L 265.209517756016 429.83732514237585"/></g><g transform="translate(2,-30) scale(1,1)"><path fill="none" stroke="#000000" d="M 256.790482243984 429.83732514237585 L 261 440 L 265.209517756016 429.83732514237585 L 256.790482243984 429.83732514237585" stroke-miterlimit="10"/></g><g transform="translate(2,-30) scale(1,1)"><path fill="none" stroke="#000000" d="M 262 472 L 262 504" stroke-miterlimit="10"/></g><g transform="translate(2,-30) scale(1,1)"><path fill="#000000" stroke="none" d="M 257.790482243984 493.83732514237585 L 262 504 L 266.209517756016 493.83732514237585"/></g><g transform="translate(2,-30) scale(1,1)"><path fill="none" stroke="#000000" d="M 257.790482243984 493.83732514237585 L 262 504 L 266.209517756016 493.83732514237585 L 257.790482243984 493.83732514237585" stroke-miterlimit="10"/></g><g transform="translate(2,-30) scale(1,1)"><path fill="#ffffff" stroke="none" d="M 48 582.5 L 262.92041015625 568 L 477.8408203125 582.5 L 262.92041015625 597 L 48 582.5"/></g><g transform="translate(2,-30) scale(1,1)"><path fill="none" stroke="#000000" d="M 48 582.5 L 262.92041015625 568 L 477.8408203125 582.5 L 262.92041015625 597 L 48 582.5 L 48 582.5" stroke-miterlimit="10"/></g><g transform="translate(2,-30) scale(1,1)"><g><path fill="none" stroke="none"/><text fill="#000000" stroke="none" font-family="Arial" font-size="13px" font-style="normal" font-weight="normal" text-decoration="none" x="156.111572265625" y="589">次のシーンインデックスが"C"の場合</text></g></g><g transform="translate(2,-30) scale(1,1)"><path fill="#ffffff" stroke="none" d="M 40 654.5 L 254.20947265625 640 L 468.4189453125 654.5 L 254.20947265625 669 L 40 654.5"/></g><g transform="translate(2,-30) scale(1,1)"><path fill="none" stroke="#000000" d="M 40 654.5 L 254.20947265625 640 L 468.4189453125 654.5 L 254.20947265625 669 L 40 654.5 L 40 654.5" stroke-miterlimit="10"/></g><g transform="translate(2,-30) scale(1,1)"><g><path fill="none" stroke="none"/><text fill="#000000" stroke="none" font-family="Arial" font-size="13px" font-style="normal" font-weight="normal" text-decoration="none" x="147.75927734375" y="661">次のシーンインデックスが"E"の場合</text></g></g><g transform="translate(2,-30) scale(1,1)"><path fill="#ffffff" stroke="none" d="M 48 726.5 L 262.431640625 712 L 476.86328125 726.5 L 262.431640625 741 L 48 726.5"/></g><g transform="translate(2,-30) scale(1,1)"><path fill="none" stroke="#000000" d="M 48 726.5 L 262.431640625 712 L 476.86328125 726.5 L 262.431640625 741 L 48 726.5 L 48 726.5" stroke-miterlimit="10"/></g><g transform="translate(2,-30) scale(1,1)"><g><path fill="none" stroke="none"/><text fill="#000000" stroke="none" font-family="Arial" font-size="13px" font-style="normal" font-weight="normal" text-decoration="none" x="155.9814453125" y="733">次のシーンインデックスが"S"の場合</text></g></g><g transform="translate(2,-30) scale(1,1)"><path fill="none" stroke="#000000" d="M 258 536 L 258 568" stroke-miterlimit="10"/></g><g transform="translate(2,-30) scale(1,1)"><path fill="#000000" stroke="none" d="M 253.790482243984 557.8373251423759 L 258 568 L 262.209517756016 557.8373251423759"/></g><g transform="translate(2,-30) scale(1,1)"><path fill="none" stroke="#000000" d="M 253.790482243984 557.8373251423759 L 258 568 L 262.209517756016 557.8373251423759 L 253.790482243984 557.8373251423759" stroke-miterlimit="10"/></g><g transform="translate(2,-30) scale(1,1)"><rect fill="#ffffff" stroke="none" x="568" y="568" width="136" height="32"/></g><g transform="translate(2,-30) scale(1,1)"><path fill="none" stroke="#000000" d="M 568 568 L 704 568 L 704 600 L 568 600 L 568 568 Z Z" stroke-miterlimit="10"/></g><g transform="translate(2,-30) scale(1,1)"><g><path fill="none" stroke="none"/><text fill="#000000" stroke="none" font-family="Arial" font-size="13px" font-style="normal" font-weight="normal" text-decoration="none" x="577.5" y="590.5">ゲームクリアで終了</text></g></g><g transform="translate(2,-30) scale(1,1)"><rect fill="#ffffff" stroke="none" x="568" y="640" width="110" height="32"/></g><g transform="translate(2,-30) scale(1,1)"><path fill="none" stroke="#000000" d="M 568 640 L 678 640 L 678 672 L 568 672 L 568 640 Z Z" stroke-miterlimit="10"/></g><g transform="translate(2,-30) scale(1,1)"><g><path fill="none" stroke="none"/><text fill="#000000" stroke="none" font-family="Arial" font-size="13px" font-style="normal" font-weight="normal" text-decoration="none" x="577.5" y="662.5">ゲームオーバー</text></g></g><g transform="translate(2,-30) scale(1,1)"><rect fill="#ffffff" stroke="none" x="584" y="712" width="97" height="32"/></g><g transform="translate(2,-30) scale(1,1)"><path fill="none" stroke="#000000" d="M 584 712 L 681 712 L 681 744 L 584 744 L 584 712 Z Z" stroke-miterlimit="10"/></g><g transform="translate(2,-30) scale(1,1)"><g><path fill="none" stroke="none"/><text fill="#000000" stroke="none" font-family="Arial" font-size="13px" font-style="normal" font-weight="normal" text-decoration="none" x="593.5" y="734.5">保存して終了</text></g></g><g transform="translate(2,-30) scale(1,1)"><path fill="none" stroke="#000000" d="M 478 584 L 568 584" stroke-miterlimit="10"/></g><g transform="translate(2,-30) scale(1,1)"><path fill="#000000" stroke="none" d="M 557.8373251423759 588.209517756016 L 568 584 L 557.8373251423758 579.790482243984"/></g><g transform="translate(2,-30) scale(1,1)"><path fill="none" stroke="#000000" d="M 557.8373251423759 588.209517756016 L 568 584 L 557.8373251423758 579.790482243984 L 557.8373251423759 588.209517756016" stroke-miterlimit="10"/></g><g transform="translate(2,-30) scale(1,1)"><g><path fill="none" stroke="none"/><text fill="#000000" stroke="none" font-family="Arial" font-size="13px" font-style="normal" font-weight="normal" text-decoration="none" x="513.00146484375" y="575.5">yes</text></g></g><g transform="translate(2,-30) scale(1,1)"><path fill="none" stroke="#000000" d="M 259 597 L 259 640" stroke-miterlimit="10"/></g><g transform="translate(2,-30) scale(1,1)"><path fill="#000000" stroke="none" d="M 254.790482243984 629.8373251423759 L 259 640 L 263.209517756016 629.8373251423759"/></g><g transform="translate(2,-30) scale(1,1)"><path fill="none" stroke="#000000" d="M 254.790482243984 629.8373251423759 L 259 640 L 263.209517756016 629.8373251423759 L 254.790482243984 629.8373251423759" stroke-miterlimit="10"/></g><g transform="translate(2,-30) scale(1,1)"><g><path fill="none" stroke="none"/><text fill="#000000" stroke="none" font-family="Arial" font-size="13px" font-style="normal" font-weight="normal" text-decoration="none" x="266.1474609375" y="623.5">no</text></g></g><g transform="translate(2,-30) scale(1,1)"><path fill="none" stroke="#000000" d="M 468 656 L 568 656" stroke-miterlimit="10"/></g><g transform="translate(2,-30) scale(1,1)"><path fill="#000000" stroke="none" d="M 557.8373251423759 660.209517756016 L 568 656 L 557.8373251423758 651.790482243984"/></g><g transform="translate(2,-30) scale(1,1)"><path fill="none" stroke="#000000" d="M 557.8373251423759 660.209517756016 L 568 656 L 557.8373251423758 651.790482243984 L 557.8373251423759 660.209517756016" stroke-miterlimit="10"/></g><g transform="translate(2,-30) scale(1,1)"><g><path fill="none" stroke="none"/><text fill="#000000" stroke="none" font-family="Arial" font-size="13px" font-style="normal" font-weight="normal" text-decoration="none" x="508.00146484375" y="647.5">yes</text></g></g><g transform="translate(2,-30) scale(1,1)"><path fill="none" stroke="#000000" d="M 255 669 L 255 712" stroke-miterlimit="10"/></g><g transform="translate(2,-30) scale(1,1)"><path fill="#000000" stroke="none" d="M 250.790482243984 701.8373251423759 L 255 712 L 259.209517756016 701.8373251423759"/></g><g transform="translate(2,-30) scale(1,1)"><path fill="none" stroke="#000000" d="M 250.790482243984 701.8373251423759 L 255 712 L 259.209517756016 701.8373251423759 L 250.790482243984 701.8373251423759" stroke-miterlimit="10"/></g><g transform="translate(2,-30) scale(1,1)"><g><path fill="none" stroke="none"/><text fill="#000000" stroke="none" font-family="Arial" font-size="13px" font-style="normal" font-weight="normal" text-decoration="none" x="262.1474609375" y="695.5">no</text></g></g><g transform="translate(2,-30) scale(1,1)"><path fill="none" stroke="#000000" d="M 477 728 L 584 728" stroke-miterlimit="10"/></g><g transform="translate(2,-30) scale(1,1)"><path fill="#000000" stroke="none" d="M 573.8373251423759 732.209517756016 L 584 728 L 573.8373251423758 723.790482243984"/></g><g transform="translate(2,-30) scale(1,1)"><path fill="none" stroke="#000000" d="M 573.8373251423759 732.209517756016 L 584 728 L 573.8373251423758 723.790482243984 L 573.8373251423759 732.209517756016" stroke-miterlimit="10"/></g><g transform="translate(2,-30) scale(1,1)"><g><path fill="none" stroke="none"/><text fill="#000000" stroke="none" font-family="Arial" font-size="13px" font-style="normal" font-weight="normal" text-decoration="none" x="520.00146484375" y="719.5">yes</text></g></g><g transform="translate(2,-30) scale(1,1)"><path fill="none" stroke="#000000" d="M 262 741 L 262 784" stroke-miterlimit="10"/></g><g transform="translate(2,-30) scale(1,1)"><path fill="#000000" stroke="none" d="M 257.790482243984 773.8373251423759 L 262 784 L 266.209517756016 773.8373251423759"/></g><g transform="translate(2,-30) scale(1,1)"><path fill="none" stroke="#000000" d="M 257.790482243984 773.8373251423759 L 262 784 L 266.209517756016 773.8373251423759 L 257.790482243984 773.8373251423759" stroke-miterlimit="10"/></g><g transform="translate(2,-30) scale(1,1)"><g><path fill="none" stroke="none"/><text fill="#000000" stroke="none" font-family="Arial" font-size="13px" font-style="normal" font-weight="normal" text-decoration="none" x="269.1474609375" y="767.5">no</text></g></g><g transform="translate(2,-30) scale(1,1)"><path fill="none" stroke="#000000" d="M 40 800 L 16 800 M 16 800 A 8 8 0 0 1 8 792 L 8 464 M 8 464 A 8 8 0 0 1 15.999999999999998 456 L 72 456" stroke-miterlimit="10"/></g><g transform="translate(2,-30) scale(1,1)"><path fill="#000000" stroke="none" d="M 61.837325142375846 460.209517756016 L 72 456 L 61.837325142375846 451.790482243984"/></g><g transform="translate(2,-30) scale(1,1)"><path fill="none" stroke="#000000" d="M 61.837325142375846 460.209517756016 L 72 456 L 61.837325142375846 451.790482243984 L 61.837325142375846 460.209517756016" stroke-miterlimit="10"/></g><g transform="translate(2,-30) scale(1,1)"><path fill="#d8ffeb" stroke="none" d="M 40 496 L 115.564453125 496 L 125.564453125 506 L 125.564453125 519 L 40 519 L 40 496"/></g><g transform="translate(2,-30) scale(1,1)"><path fill="none" stroke="#000000" d="M 40 496 L 115.564453125 496 L 125.564453125 506 L 125.564453125 519 L 40 519 L 40 496 L 40 496" stroke-miterlimit="10"/></g><g transform="translate(2,-30) scale(1,1)"><path fill="none" stroke="#000000" d="M 115.564453125 496 L 115.564453125 506 L 125.564453125 506 L 115.564453125 496" stroke-miterlimit="10"/></g><g transform="translate(2,-30) scale(1,1)"><g><path fill="none" stroke="none"/><text fill="#000000" stroke="none" font-family="Arial" font-size="13px" font-style="normal" font-weight="normal" text-decoration="none" x="45" y="514">GameLoop</text></g></g><g transform="translate(2,-30) scale(1,1)"><path fill="none" stroke="#000000" d="M 75 521 L 8 628" stroke-miterlimit="10" stroke-dasharray="3"/></g></g></svg>