<svg version="1.1" xmlns="http://www.w3.org/2000/svg" xmlns:xlink="http://www.w3.org/1999/xlink" width="797.244140625" height="781"><defs/><g><text fill="#eeeeee" stroke="none" font-family="Arial" font-size="24px" font-style="normal" font-weight="normal" text-decoration="none" x="0" y="0">UNREGISTERED</text><text fill="#eeeeee" stroke="none" font-family="Arial" font-size="24px" font-style="normal" font-weight="normal" text-decoration="none" x="0" y="30">UNREGISTERED</text><text fill="#eeeeee" stroke="none" font-family="Arial" font-size="24px" font-style="normal" font-weight="normal" text-decoration="none" x="0" y="60">UNREGISTERED</text><text fill="#eeeeee" stroke="none" font-family="Arial" font-size="24px" font-style="normal" font-weight="normal" text-decoration="none" x="0" y="90">UNREGISTERED</text><text fill="#eeeeee" stroke="none" font-family="Arial" font-size="24px" font-style="normal" font-weight="normal" text-decoration="none" x="0" y="120">UNREGISTERED</text><text fill="#eeeeee" stroke="none" font-family="Arial" font-size="24px" font-style="normal" font-weight="normal" text-decoration="none" x="0" y="150">UNREGISTERED</text><text fill="#eeeeee" stroke="none" font-family="Arial" font-size="24px" font-style="normal" font-weight="normal" text-decoration="none" x="0" y="180">UNREGISTERED</text><text fill="#eeeeee" stroke="none" font-family="Arial" font-size="24px" font-style="normal" font-weight="normal" text-decoration="none" x="0" y="210">UNREGISTERED</text><text fill="#eeeeee" stroke="none" font-family="Arial" font-size="24px" font-style="normal" font-weight="normal" text-decoration="none" x="0" y="240">UNREGISTERED</text><text fill="#eeeeee" stroke="none" font-family="Arial" font-size="24px" font-style="normal" font-weight="normal" text-decoration="none" x="0" y="270">UNREGISTERED</text><text fill="#eeeeee" stroke="none" font-family="Arial" font-size="24px" font-style="normal" font-weight="normal" text-decoration="none" x="0" y="300">UNREGISTERED</text><text fill="#eeeeee" stroke="none" font-family="Arial" font-size="24px" font-style="normal" font-weight="normal" text-decoration="none" x="0" y="330">UNREGISTERED</text><text fill="#eeeeee" stroke="none" font-family="Arial" font-size="24px" font-style="normal" font-weight="normal" text-decoration="none" x="0" y="360">UNREGISTERED</text><text fill="#eeeeee" stroke="none" font-family="Arial" font-size="24px" font-style="normal" font-weight="normal" text-decoration="none" x="0" y="390">UNREGISTERED</text><text fill="#eeeeee" stroke="none" font-family="Arial" font-size="24px" font-style="normal" font-weight="normal" text-decoration="none" x="0" y="420">UNREGISTERED</text><text fill="#eeeeee" stroke="none" font-family="Arial" font-size="24px" font-style="normal" font-weight="normal" text-decoration="none" x="0" y="450">UNREGISTERED</text><text fill="#eeeeee" stroke="none" font-family="Arial" font-size="24px" font-style="normal" font-weight="normal" text-decoration="none" x="0" y="480">UNREGISTERED</text><text fill="#eeeeee" stroke="none" font-family="Arial" font-size="24px" font-style="normal" font-weight="normal" text-decoration="none" x="0" y="510">UNREGISTERED</text><text fill="#eeeeee" stroke="none" font-family="Arial" font-size="24px" font-style="normal" font-weight="normal" text-decoration="none" x="0" y="540">UNREGISTERED</text><text fill="#eeeeee" stroke="none" font-family="Arial" font-size="24px" font-style="normal" font-weight="normal" text-decoration="none" x="0" y="570">UNREGISTERED</text><text fill="#eeeeee" stroke="none" font-family="Arial" font-size="24px" font-style="normal" font-weight="normal" text-decoration="none" x="0" y="600">UNREGISTERED</text><text fill="#eeeeee" stroke="none" font-family="Arial" font-size="24px" font-style="normal" font-weight="normal" text-decoration="none" x="0" y="630">UNREGISTERED</text><text fill="#eeeeee" stroke="none" font-family="Arial" font-size="24px" font-style="normal" font-weight="normal" text-decoration="none" x="0" y="660">UNREGISTERED</text><text fill="#eeeeee" stroke="none" font-family="Arial" font-size="24px" font-style="normal" font-weight="normal" text-decoration="none" x="0" y="690">UNREGISTERED</text><text fill="#eeeeee" stroke="none" font-family="Arial" font-size="24px" font-style="normal" font-weight="normal" text-decoration="none" x="0" y="720">UNREGISTERED</text><text fill="#eeeeee" stroke="none" font-family="Arial" font-size="24px" font-style="normal" font-weight="normal" text-decoration="none" x="0" y="750">UNREGISTERED</text><text fill="#eeeeee" stroke="none" font-family="Arial" font-size="24px" font-style="normal" font-weight="normal" text-decoration="none" x="0" y="780">UNREGISTERED</text><text fill="#eeeeee" stroke="none" font-family="Arial" font-size="24px" font-style="normal" font-weight="normal" text-decoration="none" x="200" y="0">UNREGISTERED</text><text fill="#eeeeee" stroke="none" font-family="Arial" font-size="24px" font-style="normal" font-weight="normal" text-decoration="none" x="200" y="30">UNREGISTERED</text><text fill="#eeeeee" stroke="none" font-family="Arial" font-size="24px" font-style="normal" font-weight="normal" text-decoration="none" x="200" y="60">UNREGISTERED</text><text fill="#eeeeee" stroke="none" font-family="Arial" font-size="24px" font-style="normal" font-weight="normal" text-decoration="none" x="200" y="90">UNREGISTERED</text><text fill="#eeeeee" stroke="none" font-family="Arial" font-size="24px" font-style="normal" font-weight="normal" text-decoration="none" x="200" y="120">UNREGISTERED</text><text fill="#eeeeee" stroke="none" font-family="Arial" font-size="24px" font-style="normal" font-weight="normal" text-decoration="none" x="200" y="150">UNREGISTERED</text><text fill="#eeeeee" stroke="none" font-family="Arial" font-size="24px" font-style="normal" font-weight="normal" text-decoration="none" x="200" y="180">UNREGISTERED</text><text fill="#eeeeee" stroke="none" font-family="Arial" font-size="24px" font-style="normal" font-weight="normal" text-decoration="none" x="200" y="210">UNREGISTERED</text><text fill="#eeeeee" stroke="none" font-family="Arial" font-size="24px" font-style="normal" font-weight="normal" text-decoration="none" x="200" y="240">UNREGISTERED</text><text fill="#eeeeee" stroke="none" font-family="Arial" font-size="24px" font-style="normal" font-weight="normal" text-decoration="none" x="200" y="270">UNREGISTERED</text><text fill="#eeeeee" stroke="none" font-family="Arial" font-size="24px" font-style="normal" font-weight="normal" text-decoration="none" x="200" y="300">UNREGISTERED</text><text fill="#eeeeee" stroke="none" font-family="Arial" font-size="24px" font-style="normal" font-weight="normal" text-decoration="none" x="200" y="330">UNREGISTERED</text><text fill="#eeeeee" stroke="none" font-family="Arial" font-size="24px" font-style="normal" font-weight="normal" text-decoration="none" x="200" y="360">UNREGISTERED</text><text fill="#eeeeee" stroke="none" font-family="Arial" font-size="24px" font-style="normal" font-weight="normal" text-decoration="none" x="200" y="390">UNREGISTERED</text><text fill="#eeeeee" stroke="none" font-family="Arial" font-size="24px" font-style="normal" font-weight="normal" text-decoration="none" x="200" y="420">UNREGISTERED</text><text fill="#eeeeee" stroke="none" font-family="Arial" font-size="24px" font-style="normal" font-weight="normal" text-decoration="none" x="200" y="450">UNREGISTERED</text><text fill="#eeeeee" stroke="none" font-family="Arial" font-size="24px" font-style="normal" font-weight="normal" text-decoration="none" x="200" y="480">UNREGISTERED</text><text fill="#eeeeee" stroke="none" font-family="Arial" font-size="24px" font-style="normal" font-weight="normal" text-decoration="none" x="200" y="510">UNREGISTERED</text><text fill="#eeeeee" stroke="none" font-family="Arial" font-size="24px" font-style="normal" font-weight="normal" text-decoration="none" x="200" y="540">UNREGISTERED</text><text fill="#eeeeee" stroke="none" font-family="Arial" font-size="24px" font-style="normal" font-weight="normal" text-decoration="none" x="200" y="570">UNREGISTERED</text><text fill="#eeeeee" stroke="none" font-family="Arial" font-size="24px" font-style="normal" font-weight="normal" text-decoration="none" x="200" y="600">UNREGISTERED</text><text fill="#eeeeee" stroke="none" font-family="Arial" font-size="24px" font-style="normal" font-weight="normal" text-decoration="none" x="200" y="630">UNREGISTERED</text><text fill="#eeeeee" stroke="none" font-family="Arial" font-size="24px" font-style="normal" font-weight="normal" text-decoration="none" x="200" y="660">UNREGISTERED</text><text fill="#eeeeee" stroke="none" font-family="Arial" font-size="24px" font-style="normal" font-weight="normal" text-decoration="none" x="200" y="690">UNREGISTERED</text><text fill="#eeeeee" stroke="none" font-family="Arial" font-size="24px" font-style="normal" font-weight="normal" text-decoration="none" x="200" y="720">UNREGISTERED</text><text fill="#eeeeee" stroke="none" font-family="Arial" font-size="24px" font-style="normal" font-weight="normal" text-decoration="none" x="200" y="750">UNREGISTERED</text><text fill="#eeeeee" stroke="none" font-family="Arial" font-size="24px" font-style="normal" font-weight="normal" text-decoration="none" x="200" y="780">UNREGISTERED</text><text fill="#eeeeee" stroke="none" font-family="Arial" font-size="24px" font-style="normal" font-weight="normal" text-decoration="none" x="400" y="0">UNREGISTERED</text><text fill="#eeeeee" stroke="none" font-family="Arial" font-size="24px" font-style="normal" font-weight="normal" text-decoration="none" x="400" y="30">UNREGISTERED</text><text fill="#eeeeee" stroke="none" font-family="Arial" font-size="24px" font-style="normal" font-weight="normal" text-decoration="none" x="400" y="60">UNREGISTERED</text><text fill="#eeeeee" stroke="none" font-family="Arial" font-size="24px" font-style="normal" font-weight="normal" text-decoration="none" x="400" y="90">UNREGISTERED</text><text fill="#eeeeee" stroke="none" font-family="Arial" font-size="24px" font-style="normal" font-weight="normal" text-decoration="none" x="400" y="120">UNREGISTERED</text><text fill="#eeeeee" stroke="none" font-family="Arial" font-size="24px" font-style="normal" font-weight="normal" text-decoration="none" x="400" y="150">UNREGISTERED</text><text fill="#eeeeee" stroke="none" font-family="Arial" font-size="24px" font-style="normal" font-weight="normal" text-decoration="none" x="400" y="180">UNREGISTERED</text><text fill="#eeeeee" stroke="none" font-family="Arial" font-size="24px" font-style="normal" font-weight="normal" text-decoration="none" x="400" y="210">UNREGISTERED</text><text fill="#eeeeee" stroke="none" font-family="Arial" font-size="24px" font-style="normal" font-weight="normal" text-decoration="none" x="400" y="240">UNREGISTERED</text><text fill="#eeeeee" stroke="none" font-family="Arial" font-size="24px" font-style="normal" font-weight="normal" text-decoration="none" x="400" y="270">UNREGISTERED</text><text fill="#eeeeee" stroke="none" font-family="Arial" font-size="24px" font-style="normal" font-weight="normal" text-decoration="none" x="400" y="300">UNREGISTERED</text><text fill="#eeeeee" stroke="none" font-family="Arial" font-size="24px" font-style="normal" font-weight="normal" text-decoration="none" x="400" y="330">UNREGISTERED</text><text fill="#eeeeee" stroke="none" font-family="Arial" font-size="24px" font-style="normal" font-weight="normal" text-decoration="none" x="400" y="360">UNREGISTERED</text><text fill="#eeeeee" stroke="none" font-family="Arial" font-size="24px" font-style="normal" font-weight="normal" text-decoration="none" x="400" y="390">UNREGISTERED</text><text fill="#eeeeee" stroke="none" font-family="Arial" font-size="24px" font-style="normal" font-weight="normal" text-decoration="none" x="400" y="420">UNREGISTERED</text><text fill="#eeeeee" stroke="none" font-family="Arial" font-size="24px" font-style="normal" font-weight="normal" text-decoration="none" x="400" y="450">UNREGISTERED</text><text fill="#eeeeee" stroke="none" font-family="Arial" font-size="24px" font-style="normal" font-weight="normal" text-decoration="none" x="400" y="480">UNREGISTERED</text><text fill="#eeeeee" stroke="none" font-family="Arial" font-size="24px" font-style="normal" font-weight="normal" text-decoration="none" x="400" y="510">UNREGISTERED</text><text fill="#eeeeee" stroke="none" font-family="Arial" font-size="24px" font-style="normal" font-weight="normal" text-decoration="none" x="400" y="540">UNREGISTERED</text><text fill="#eeeeee" stroke="none" font-family="Arial" font-size="24px" font-style="normal" font-weight="normal" text-decoration="none" x="400" y="570">UNREGISTERED</text><text fill="#eeeeee" stroke="none" font-family="Arial" font-size="24px" font-style="normal" font-weight="normal" text-decoration="none" x="400" y="600">UNREGISTERED</text><text fill="#eeeeee" stroke="none" font-family="Arial" font-size="24px" font-style="normal" font-weight="normal" text-decoration="none" x="400" y="630">UNREGISTERED</text><text fill="#eeeeee" stroke="none" font-family="Arial" font-size="24px" font-style="normal" font-weight="normal" text-decoration="none" x="400" y="660">UNREGISTERED</text><text fill="#eeeeee" stroke="none" font-family="Arial" font-size="24px" font-style="normal" font-weight="normal" text-decoration="none" x="400" y="690">UNREGISTERED</text><text fill="#eeeeee" stroke="none" font-family="Arial" font-size="24px" font-style="normal" font-weight="normal" text-decoration="none" x="400" y="720">UNREGISTERED</text><text fill="#eeeeee" stroke="none" font-family="Arial" font-size="24px" font-style="normal" font-weight="normal" text-decoration="none" x="400" y="750">UNREGISTERED</text><text fill="#eeeeee" stroke="none" font-family="Arial" font-size="24px" font-style="normal" font-weight="normal" text-decoration="none" x="400" y="780">UNREGISTERED</text><text fill="#eeeeee" stroke="none" font-family="Arial" font-size="24px" font-style="normal" font-weight="normal" text-decoration="none" x="600" y="0">UNREGISTERED</text><text fill="#eeeeee" stroke="none" font-family="Arial" font-size="24px" font-style="normal" font-weight="normal" text-decoration="none" x="600" y="30">UNREGISTERED</text><text fill="#eeeeee" stroke="none" font-family="Arial" font-size="24px" font-style="normal" font-weight="normal" text-decoration="none" x="600" y="60">UNREGISTERED</text><text fill="#eeeeee" stroke="none" font-family="Arial" font-size="24px" font-style="normal" font-weight="normal" text-decoration="none" x="600" y="90">UNREGISTERED</text><text fill="#eeeeee" stroke="none" font-family="Arial" font-size="24px" font-style="normal" font-weight="normal" text-decoration="none" x="600" y="120">UNREGISTERED</text><text fill="#eeeeee" stroke="none" font-family="Arial" font-size="24px" font-style="normal" font-weight="normal" text-decoration="none" x="600" y="150">UNREGISTERED</text><text fill="#eeeeee" stroke="none" font-family="Arial" font-size="24px" font-style="normal" font-weight="normal" text-decoration="none" x="600" y="180">UNREGISTERED</text><text fill="#eeeeee" stroke="none" font-family="Arial" font-size="24px" font-style="normal" font-weight="normal" text-decoration="none" x="600" y="210">UNREGISTERED</text><text fill="#eeeeee" stroke="none" font-family="Arial" font-size="24px" font-style="normal" font-weight="normal" text-decoration="none" x="600" y="240">UNREGISTERED</text><text fill="#eeeeee" stroke="none" font-family="Arial" font-size="24px" font-style="normal" font-weight="normal" text-decoration="none" x="600" y="270">UNREGISTERED</text><text fill="#eeeeee" stroke="none" font-family="Arial" font-size="24px" font-style="normal" font-weight="normal" text-decoration="none" x="600" y="300">UNREGISTERED</text><text fill="#eeeeee" stroke="none" font-family="Arial" font-size="24px" font-style="normal" font-weight="normal" text-decoration="none" x="600" y="330">UNREGISTERED</text><text fill="#eeeeee" stroke="none" font-family="Arial" font-size="24px" font-style="normal" font-weight="normal" text-decoration="none" x="600" y="360">UNREGISTERED</text><text fill="#eeeeee" stroke="none" font-family="Arial" font-size="24px" font-style="normal" font-weight="normal" text-decoration="none" x="600" y="390">UNREGISTERED</text><text fill="#eeeeee" stroke="none" font-family="Arial" font-size="24px" font-style="normal" font-weight="normal" text-decoration="none" x="600" y="420">UNREGISTERED</text><text fill="#eeeeee" stroke="none" font-family="Arial" font-size="24px" font-style="normal" font-weight="normal" text-decoration="none" x="600" y="450">UNREGISTERED</text><text fill="#eeeeee" stroke="none" font-family="Arial" font-size="24px" font-style="normal" font-weight="normal" text-decoration="none" x="600" y="480">UNREGISTERED</text><text fill="#eeeeee" stroke="none" font-family="Arial" font-size="24px" font-style="normal" font-weight="normal" text-decoration="none" x="600" y="510">UNREGISTERED</text><text fill="#eeeeee" stroke="none" font-family="Arial" font-size="24px" font-style="normal" font-weight="normal" text-decoration="none" x="600" y="540">UNREGISTERED</text><text fill="#eeeeee" stroke="none" font-family="Arial" font-size="24px" font-style="normal" font-weight="normal" text-decoration="none" x="600" y="570">UNREGISTERED</text><text fill="#eeeeee" stroke="none" font-family="Arial" font-size="24px" font-style="normal" font-weight="normal" text-decoration="none" x="600" y="600">UNREGISTERED</text><text fill="#eeeeee" stroke="none" font-family="Arial" font-size="24px" font-style="normal" font-weight="normal" text-decoration="none" x="600" y="630">UNREGISTERED</text><text fill="#eeeeee" stroke="none" font-family="Arial" font-size="24px" font-style="normal" font-weight="normal" text-decoration="none" x="600" y="660">UNREGISTERED</text><text fill="#eeeeee" stroke="none" font-family="Arial" font-size="24px" font-style="normal" font-weight="normal" text-decoration="none" x="600" y="690">UNREGISTERED</text><text fill="#eeeeee" stroke="none" font-family="Arial" font-size="24px" font-style="normal" font-weight="normal" text-decoration="none" x="600" y="720">UNREGISTERED</text><text fill="#eeeeee" stroke="none" font-family="Arial" font-size="24px" font-style="normal" font-weight="normal" text-decoration="none" x="600" y="750">UNREGISTERED</text><text fill="#eeeeee" stroke="none" font-family="Arial" font-size="24px" font-style="normal" font-weight="normal" text-decoration="none" x="600" y="780">UNREGISTERED</text><g transform="translate(2,-6) scale(1,1)"><path fill="none" stroke="#000000" d="M 128 16 L 327 16 L 327 311 L 128 311 L 128 16" stroke-miterlimit="10"/></g><g transform="translate(2,-6) scale(1,1)"><path fill="#ffffff" stroke="none" d="M 128 16 L 128 38 L 228.54443359375 38 L 239.54443359375 27 L 239.54443359375 16 L 128 16"/></g><g transform="translate(2,-6) scale(1,1)"><path fill="none" stroke="#000000" d="M 128 16 L 128 38 L 228.54443359375 38 L 239.54443359375 27 L 239.54443359375 16 L 128 16 L 128 16" stroke-miterlimit="10"/></g><g transform="translate(2,-6) scale(1,1)"><g><path fill="none" stroke="none"/><text fill="#000000" stroke="none" font-family="Arial" font-size="13px" font-style="normal" font-weight="normal" text-decoration="none" x="168.6181640625" y="33.5">RpgLogic</text></g></g><g transform="translate(2,-6) scale(1,1)"><g><path fill="none" stroke="none"/><text fill="#000000" stroke="none" font-family="Arial" font-size="13px" font-style="normal" font-weight="bold" text-decoration="none" x="133" y="33.5">class</text></g></g><g transform="translate(2,-6) scale(1,1)"><path fill="none" stroke="#000000" d="M 136 368 L 368 368 L 368 696 L 136 696 L 136 368" stroke-miterlimit="10"/></g><g transform="translate(2,-6) scale(1,1)"><path fill="#ffffff" stroke="none" d="M 136 368 L 136 390 L 305.18798828125 390 L 316.18798828125 379 L 316.18798828125 368 L 136 368"/></g><g transform="translate(2,-6) scale(1,1)"><path fill="none" stroke="#000000" d="M 136 368 L 136 390 L 305.18798828125 390 L 316.18798828125 379 L 316.18798828125 368 L 136 368 L 136 368" stroke-miterlimit="10"/></g><g transform="translate(2,-6) scale(1,1)"><g><path fill="none" stroke="none"/><text fill="#000000" stroke="none" font-family="Arial" font-size="13px" font-style="normal" font-weight="normal" text-decoration="none" x="176.6181640625" y="385.5">TextRpgGameEngine</text></g></g><g transform="translate(2,-6) scale(1,1)"><g><path fill="none" stroke="none"/><text fill="#000000" stroke="none" font-family="Arial" font-size="13px" font-style="normal" font-weight="bold" text-decoration="none" x="141" y="385.5">class</text></g></g><g transform="translate(2,-6) scale(1,1)"><path fill="none" stroke="#000000" d="M 448 16 L 624 16 L 624 312 L 448 312 L 448 16" stroke-miterlimit="10"/></g><g transform="translate(2,-6) scale(1,1)"><path fill="#ffffff" stroke="none" d="M 448 16 L 448 38 L 554.3271484375 38 L 565.3271484375 27 L 565.3271484375 16 L 448 16"/></g><g transform="translate(2,-6) scale(1,1)"><path fill="none" stroke="#000000" d="M 448 16 L 448 38 L 554.3271484375 38 L 565.3271484375 27 L 565.3271484375 16 L 448 16 L 448 16" stroke-miterlimit="10"/></g><g transform="translate(2,-6) scale(1,1)"><g><path fill="none" stroke="none"/><text fill="#000000" stroke="none" font-family="Arial" font-size="13px" font-style="normal" font-weight="normal" text-decoration="none" x="488.6181640625" y="33.5">RpgScene</text></g></g><g transform="translate(2,-6) scale(1,1)"><g><path fill="none" stroke="none"/><text fill="#000000" stroke="none" font-family="Arial" font-size="13px" font-style="normal" font-weight="bold" text-decoration="none" x="453" y="33.5">class</text></g></g><g transform="translate(2,-6) scale(1,1)"><path fill="#C0C0C0" stroke="none" d="M 39 64.5 C 39 59.2532944 43.2532944 55 48.5 55 C 53.7467056 55 58 59.2532944 58 64.5 C 58 69.7467056 53.7467056 74 48.5 74 C 43.2532944 74 39 69.7467056 39 64.5 Z" opacity="0.2"/></g><g transform="translate(2,-6) scale(1,1)"><path fill="#000000" stroke="none" d="M 32 57.5 C 32 52.2532944 36.2532944 48 41.5 48 C 46.7467056 48 51 52.2532944 51 57.5 C 51 62.7467056 46.7467056 67 41.5 67 C 36.2532944 67 32 62.7467056 32 57.5 Z"/></g><g transform="translate(2,-6) scale(1,1)"><path fill="#C0C0C0" stroke="none" d="M 169 47 L 273.984375 47 Q 283.984375 47 283.984375 57 L 283.984375 77 Q 283.984375 87 273.984375 87 L 169 87 Q 159 87 159 77 L 159 57 Q 159 47 169 47 Z" opacity="0.2"/></g><g transform="translate(2,-6) scale(1,1)"><path fill="#ffffff" stroke="none" d="M 162 40 L 266.984375 40 Q 276.984375 40 276.984375 50 L 276.984375 70 Q 276.984375 80 266.984375 80 L 162 80 Q 152 80 152 70 L 152 50 Q 152 40 162 40 Z"/></g><g transform="translate(2,-6) scale(1,1)"><path fill="none" stroke="#000000" d="M 162 40 L 266.984375 40 Q 276.984375 40 276.984375 50 L 276.984375 70 Q 276.984375 80 266.984375 80 L 162 80 Q 152 80 152 70 L 152 50 Q 152 40 162 40 Z" stroke-miterlimit="10"/></g><g transform="translate(2,-6) scale(1,1)"><g><path fill="none" stroke="none"/><text fill="#000000" stroke="none" font-family="Arial" font-size="13px" font-style="normal" font-weight="bold" text-decoration="none" x="163.20947265625" y="59.5">title.txtの読み込み</text></g></g><g transform="translate(2,-6) scale(1,1)"><path fill="#C0C0C0" stroke="none" d="M 153 119 L 295.91796875 119 Q 305.91796875 119 305.91796875 129 L 305.91796875 149 Q 305.91796875 159 295.91796875 159 L 153 159 Q 143 159 143 149 L 143 129 Q 143 119 153 119 Z" opacity="0.2"/></g><g transform="translate(2,-6) scale(1,1)"><path fill="#ffffff" stroke="none" d="M 146 112 L 288.91796875 112 Q 298.91796875 112 298.91796875 122 L 298.91796875 142 Q 298.91796875 152 288.91796875 152 L 146 152 Q 136 152 136 142 L 136 122 Q 136 112 146 112 Z"/></g><g transform="translate(2,-6) scale(1,1)"><path fill="none" stroke="#000000" d="M 146 112 L 288.91796875 112 Q 298.91796875 112 298.91796875 122 L 298.91796875 142 Q 298.91796875 152 288.91796875 152 L 146 152 Q 136 152 136 142 L 136 122 Q 136 112 146 112 Z" stroke-miterlimit="10"/></g><g transform="translate(2,-6) scale(1,1)"><g><path fill="none" stroke="none"/><text fill="#000000" stroke="none" font-family="Arial" font-size="13px" font-style="normal" font-weight="bold" text-decoration="none" x="143.791259765625" y="131.5">ストーリー.txtの読み込み</text></g></g><g transform="translate(2,-6) scale(1,1)"><path fill="#C0C0C0" stroke="none" d="M 153 199 L 298 199 Q 308 199 308 209 L 308 229 Q 308 239 298 239 L 153 239 Q 143 239 143 229 L 143 209 Q 143 199 153 199 Z" opacity="0.2"/></g><g transform="translate(2,-6) scale(1,1)"><path fill="#ffffff" stroke="none" d="M 146 192 L 291 192 Q 301 192 301 202 L 301 222 Q 301 232 291 232 L 146 232 Q 136 232 136 222 L 136 202 Q 136 192 146 192 Z"/></g><g transform="translate(2,-6) scale(1,1)"><path fill="none" stroke="#000000" d="M 146 192 L 291 192 Q 301 192 301 202 L 301 222 Q 301 232 291 232 L 146 232 Q 136 232 136 222 L 136 202 Q 136 192 146 192 Z" stroke-miterlimit="10"/></g><g transform="translate(2,-6) scale(1,1)"><g><path fill="none" stroke="none"/><text fill="#000000" stroke="none" font-family="Arial" font-size="13px" font-style="normal" font-weight="bold" text-decoration="none" x="140.5" y="211.5">シーンオブジェクトの生成</text></g></g><g transform="translate(2,-6) scale(1,1)"><path fill="#C0C0C0" stroke="none" d="M 153 263 L 298 263 Q 308 263 308 273 L 308 293 Q 308 303 298 303 L 153 303 Q 143 303 143 293 L 143 273 Q 143 263 153 263 Z" opacity="0.2"/></g><g transform="translate(2,-6) scale(1,1)"><path fill="#ffffff" stroke="none" d="M 146 256 L 291 256 Q 301 256 301 266 L 301 286 Q 301 296 291 296 L 146 296 Q 136 296 136 286 L 136 266 Q 136 256 146 256 Z"/></g><g transform="translate(2,-6) scale(1,1)"><path fill="none" stroke="#000000" d="M 146 256 L 291 256 Q 301 256 301 266 L 301 286 Q 301 296 291 296 L 146 296 Q 136 296 136 286 L 136 266 Q 136 256 146 256 Z" stroke-miterlimit="10"/></g><g transform="translate(2,-6) scale(1,1)"><g><path fill="none" stroke="none"/><text fill="#000000" stroke="none" font-family="Arial" font-size="13px" font-style="normal" font-weight="bold" text-decoration="none" x="140.5" y="275.5">シーン開始フラグの初期化</text></g></g><g transform="translate(2,-6) scale(1,1)"><path fill="none" stroke="#000000" d="M 52 57 L 151 59" stroke-miterlimit="10"/></g><g transform="translate(2,-6) scale(1,1)"><path fill="none" stroke="#000000" d="M 140.75437489691222 63.003394340678604 L 151 59 L 140.92442172605382 54.586076298169196" stroke-miterlimit="10"/></g><g transform="translate(2,-6) scale(1,1)"><path fill="none" stroke="#000000" d="M 215 81 L 216 111" stroke-miterlimit="10"/></g><g transform="translate(2,-6) scale(1,1)"><path fill="none" stroke="#000000" d="M 211.45425113032024 100.98320574166539 L 216 111 L 219.86861329449724 100.70272700285949" stroke-miterlimit="10"/></g><g transform="translate(2,-6) scale(1,1)"><path fill="none" stroke="#000000" d="M 217 153 L 218 191" stroke-miterlimit="10"/></g><g transform="translate(2,-6) scale(1,1)"><path fill="none" stroke="#000000" d="M 213.5245928199676 180.95158069281965 L 218 191 L 221.94071466674117 180.73010380211508" stroke-miterlimit="10"/></g><g transform="translate(2,-6) scale(1,1)"><path fill="none" stroke="#000000" d="M 218 233 L 218 255" stroke-miterlimit="10"/></g><g transform="translate(2,-6) scale(1,1)"><path fill="none" stroke="#000000" d="M 213.790482243984 244.83732514237585 L 218 255 L 222.209517756016 244.83732514237585" stroke-miterlimit="10"/></g><g transform="translate(2,-6) scale(1,1)"><path fill="#C0C0C0" stroke="none" d="M 185 407 L 252 407 Q 262 407 262 417 L 262 437 Q 262 447 252 447 L 185 447 Q 175 447 175 437 L 175 417 Q 175 407 185 407 Z" opacity="0.2"/></g><g transform="translate(2,-6) scale(1,1)"><path fill="#ffffff" stroke="none" d="M 178 400 L 245 400 Q 255 400 255 410 L 255 430 Q 255 440 245 440 L 178 440 Q 168 440 168 430 L 168 410 Q 168 400 178 400 Z"/></g><g transform="translate(2,-6) scale(1,1)"><path fill="none" stroke="#000000" d="M 178 400 L 245 400 Q 255 400 255 410 L 255 430 Q 255 440 245 440 L 178 440 Q 168 440 168 430 L 168 410 Q 168 400 178 400 Z" stroke-miterlimit="10"/></g><g transform="translate(2,-6) scale(1,1)"><g><path fill="none" stroke="none"/><text fill="#000000" stroke="none" font-family="Arial" font-size="13px" font-style="normal" font-weight="bold" text-decoration="none" x="172.5" y="419.5">タイトル表示</text></g></g><g transform="translate(2,-6) scale(1,1)"><path fill="#C0C0C0" stroke="none" d="M 185 487 L 265 487 Q 275 487 275 497 L 275 517 Q 275 527 265 527 L 185 527 Q 175 527 175 517 L 175 497 Q 175 487 185 487 Z" opacity="0.2"/></g><g transform="translate(2,-6) scale(1,1)"><path fill="#ffffff" stroke="none" d="M 178 480 L 258 480 Q 268 480 268 490 L 268 510 Q 268 520 258 520 L 178 520 Q 168 520 168 510 L 168 490 Q 168 480 178 480 Z"/></g><g transform="translate(2,-6) scale(1,1)"><path fill="none" stroke="#000000" d="M 178 480 L 258 480 Q 268 480 268 490 L 268 510 Q 268 520 258 520 L 178 520 Q 168 520 168 510 L 168 490 Q 168 480 178 480 Z" stroke-miterlimit="10"/></g><g transform="translate(2,-6) scale(1,1)"><g><path fill="none" stroke="none"/><text fill="#000000" stroke="none" font-family="Arial" font-size="13px" font-style="normal" font-weight="bold" text-decoration="none" x="172.5" y="499.5">プレーヤー生成</text></g></g><g transform="translate(2,-6) scale(1,1)"><path fill="#C0C0C0" stroke="none" d="M 193 647 L 260 647 Q 270 647 270 657 L 270 677 Q 270 687 260 687 L 193 687 Q 183 687 183 677 L 183 657 Q 183 647 193 647 Z" opacity="0.2"/></g><g transform="translate(2,-6) scale(1,1)"><path fill="#ffffff" stroke="none" d="M 186 640 L 253 640 Q 263 640 263 650 L 263 670 Q 263 680 253 680 L 186 680 Q 176 680 176 670 L 176 650 Q 176 640 186 640 Z"/></g><g transform="translate(2,-6) scale(1,1)"><path fill="none" stroke="#000000" d="M 186 640 L 253 640 Q 263 640 263 650 L 263 670 Q 263 680 253 680 L 186 680 Q 176 680 176 670 L 176 650 Q 176 640 186 640 Z" stroke-miterlimit="10"/></g><g transform="translate(2,-6) scale(1,1)"><g><path fill="none" stroke="none"/><text fill="#000000" stroke="none" font-family="Arial" font-size="13px" font-style="normal" font-weight="bold" text-decoration="none" x="180.5" y="659.5">シーンの実行</text></g></g><g transform="translate(2,-6) scale(1,1)"><path fill="#C0C0C0" stroke="none" d="M 201 567 L 242 567 Q 252 567 252 577 L 252 597 Q 252 607 242 607 L 201 607 Q 191 607 191 597 L 191 577 Q 191 567 201 567 Z" opacity="0.2"/></g><g transform="translate(2,-6) scale(1,1)"><path fill="#ffffff" stroke="none" d="M 194 560 L 235 560 Q 245 560 245 570 L 245 590 Q 245 600 235 600 L 194 600 Q 184 600 184 590 L 184 570 Q 184 560 194 560 Z"/></g><g transform="translate(2,-6) scale(1,1)"><path fill="none" stroke="#000000" d="M 194 560 L 235 560 Q 245 560 245 570 L 245 590 Q 245 600 235 600 L 194 600 Q 184 600 184 590 L 184 570 Q 184 560 194 560 Z" stroke-miterlimit="10"/></g><g transform="translate(2,-6) scale(1,1)"><g><path fill="none" stroke="none"/><text fill="#000000" stroke="none" font-family="Arial" font-size="13px" font-style="normal" font-weight="bold" text-decoration="none" x="188.5" y="579.5">入力受付</text></g></g><g transform="translate(2,-6) scale(1,1)"><path fill="none" stroke="#000000" d="M 213 441 L 216 479" stroke-miterlimit="10"/></g><g transform="translate(2,-6) scale(1,1)"><path fill="none" stroke="#000000" d="M 211.0037117724933 469.20014775888546 L 216 479 L 219.39663268788576 468.5375487392492" stroke-miterlimit="10"/></g><g transform="translate(2,-6) scale(1,1)"><path fill="none" stroke="#000000" d="M 217 521 L 215 559" stroke-miterlimit="10"/></g><g transform="translate(2,-6) scale(1,1)"><path fill="none" stroke="#000000" d="M 211.33043884787344 548.6301243522015 L 215 559 L 219.7378378159721 549.0726190347331" stroke-miterlimit="10"/></g><g transform="translate(2,-6) scale(1,1)"><path fill="none" stroke="#000000" d="M 246 578 L 288 576 L 288 616 L 252 639" stroke-miterlimit="10"/></g><g transform="translate(2,-6) scale(1,1)"><path fill="none" stroke="#000000" d="M 258.2976888705964 629.9811799613716 L 252 639 L 262.8304073138171 637.0758696985865" stroke-miterlimit="10"/></g><g transform="translate(2,-6) scale(1,1)"><path fill="none" stroke="#000000" d="M 135 274 L 40 272 L 40 416 L 167 419" stroke-miterlimit="10"/></g><g transform="translate(2,-6) scale(1,1)"><path fill="none" stroke="#000000" d="M 156.74074965245464 422.96834755362863 L 167 419 L 156.93956904408438 414.5516599746361" stroke-miterlimit="10"/></g><g transform="translate(2,-6) scale(1,1)"><path fill="none" stroke="#000000" d="M 175 657 L 152 656 L 152 576 L 183 578" stroke-miterlimit="10"/></g><g transform="translate(2,-6) scale(1,1)"><path fill="none" stroke="#000000" d="M 172.58739121035424 581.546488149394 L 183 578 L 173.1294278951646 573.1449195348331" stroke-miterlimit="10"/></g><g transform="translate(2,-6) scale(1,1)"><g><path fill="none" stroke="none"/><text fill="#000000" stroke="none" font-family="Arial" font-size="13px" font-style="normal" font-weight="normal" text-decoration="none" x="165.33154296875" y="620.5">Loop</text></g></g><g transform="translate(2,-6) scale(1,1)"><path fill="#C0C0C0" stroke="none" d="M 497 63 L 577 63 Q 587 63 587 73 L 587 93 Q 587 103 577 103 L 497 103 Q 487 103 487 93 L 487 73 Q 487 63 497 63 Z" opacity="0.2"/></g><g transform="translate(2,-6) scale(1,1)"><path fill="#ffffff" stroke="none" d="M 490 56 L 570 56 Q 580 56 580 66 L 580 86 Q 580 96 570 96 L 490 96 Q 480 96 480 86 L 480 66 Q 480 56 490 56 Z"/></g><g transform="translate(2,-6) scale(1,1)"><path fill="none" stroke="#000000" d="M 490 56 L 570 56 Q 580 56 580 66 L 580 86 Q 580 96 570 96 L 490 96 Q 480 96 480 86 L 480 66 Q 480 56 490 56 Z" stroke-miterlimit="10"/></g><g transform="translate(2,-6) scale(1,1)"><g><path fill="none" stroke="none"/><text fill="#000000" stroke="none" font-family="Arial" font-size="13px" font-style="normal" font-weight="bold" text-decoration="none" x="484.5" y="75.5">ストーリー実行</text></g></g><g transform="translate(2,-6) scale(1,1)"><path fill="#C0C0C0" stroke="none" d="M 513 127 L 593 127 Q 603 127 603 137 L 603 157 Q 603 167 593 167 L 513 167 Q 503 167 503 157 L 503 137 Q 503 127 513 127 Z" opacity="0.2"/></g><g transform="translate(2,-6) scale(1,1)"><path fill="#ffffff" stroke="none" d="M 506 120 L 586 120 Q 596 120 596 130 L 596 150 Q 596 160 586 160 L 506 160 Q 496 160 496 150 L 496 130 Q 496 120 506 120 Z"/></g><g transform="translate(2,-6) scale(1,1)"><path fill="none" stroke="#000000" d="M 506 120 L 586 120 Q 596 120 596 130 L 596 150 Q 596 160 586 160 L 506 160 Q 496 160 496 150 L 496 130 Q 496 120 506 120 Z" stroke-miterlimit="10"/></g><g transform="translate(2,-6) scale(1,1)"><g><path fill="none" stroke="none"/><text fill="#000000" stroke="none" font-family="Arial" font-size="13px" font-style="normal" font-weight="bold" text-decoration="none" x="500.5" y="139.5">店舗買い物実行</text></g></g><g transform="translate(2,-6) scale(1,1)"><path fill="#C0C0C0" stroke="none" d="M 521 199 L 614 199 Q 624 199 624 209 L 624 229 Q 624 239 614 239 L 521 239 Q 511 239 511 229 L 511 209 Q 511 199 521 199 Z" opacity="0.2"/></g><g transform="translate(2,-6) scale(1,1)"><path fill="#ffffff" stroke="none" d="M 514 192 L 607 192 Q 617 192 617 202 L 617 222 Q 617 232 607 232 L 514 232 Q 504 232 504 222 L 504 202 Q 504 192 514 192 Z"/></g><g transform="translate(2,-6) scale(1,1)"><path fill="none" stroke="#000000" d="M 514 192 L 607 192 Q 617 192 617 202 L 617 222 Q 617 232 607 232 L 514 232 Q 504 232 504 222 L 504 202 Q 504 192 514 192 Z" stroke-miterlimit="10"/></g><g transform="translate(2,-6) scale(1,1)"><g><path fill="none" stroke="none"/><text fill="#000000" stroke="none" font-family="Arial" font-size="13px" font-style="normal" font-weight="bold" text-decoration="none" x="508.5" y="211.5">バトルシーン実行</text></g></g><g transform="translate(2,-6) scale(1,1)"><path fill="#C0C0C0" stroke="none" d="M 497 263 L 577 263 Q 587 263 587 273 L 587 293 Q 587 303 577 303 L 497 303 Q 487 303 487 293 L 487 273 Q 487 263 497 263 Z" opacity="0.2"/></g><g transform="translate(2,-6) scale(1,1)"><path fill="#ffffff" stroke="none" d="M 490 256 L 570 256 Q 580 256 580 266 L 580 286 Q 580 296 570 296 L 490 296 Q 480 296 480 286 L 480 266 Q 480 256 490 256 Z"/></g><g transform="translate(2,-6) scale(1,1)"><path fill="none" stroke="#000000" d="M 490 256 L 570 256 Q 580 256 580 266 L 580 286 Q 580 296 570 296 L 490 296 Q 480 296 480 286 L 480 266 Q 480 256 490 256 Z" stroke-miterlimit="10"/></g><g transform="translate(2,-6) scale(1,1)"><g><path fill="none" stroke="none"/><text fill="#000000" stroke="none" font-family="Arial" font-size="13px" font-style="normal" font-weight="bold" text-decoration="none" x="484.5" y="275.5">その他イベント</text></g></g><g transform="translate(2,-6) scale(1,1)"><path fill="#C0C0C0" stroke="none" d="M 434 71 L 433 71 Q 436 71 436 74 L 436 284 Q 436 287 433 287 L 434 287 Q 431 287 431 284 L 431 74 Q 431 71 434 71 Z" opacity="0.2"/></g><g transform="translate(2,-6) scale(1,1)"><path fill="#000000" stroke="none" d="M 427 64 L 427 64 Q 430 64 430 67 L 430 277 Q 430 280 427 280 L 427 280 Q 424 280 424 277 L 424 67 Q 424 64 427 64 Z"/></g><g transform="translate(2,-6) scale(1,1)"><path fill="none" stroke="#000000" d="M 264 661 L 384 664 L 384 176 L 423 172" stroke-miterlimit="10"/></g><g transform="translate(2,-6) scale(1,1)"><path fill="none" stroke="#000000" d="M 413.3198520059387 177.2244363153426 L 423 172 L 412.46086736405385 168.84933605696588" stroke-miterlimit="10"/></g><g transform="translate(2,-6) scale(1,1)"><g><path fill="none" stroke="none"/><text fill="#000000" stroke="none" font-family="Arial" font-size="13px" font-style="normal" font-weight="normal" text-decoration="none" x="271.5" y="652.5">各シーンの実行</text></g></g><g transform="translate(2,-6) scale(1,1)"><path fill="#ffffff" stroke="none" d="M 664 40 L 749.060546875 40 L 759.060546875 50 L 759.060546875 63 L 664 63 L 664 40"/></g><g transform="translate(2,-6) scale(1,1)"><path fill="none" stroke="#000000" d="M 664 40 L 749.060546875 40 L 759.060546875 50 L 759.060546875 63 L 664 63 L 664 40 L 664 40" stroke-miterlimit="10"/></g><g transform="translate(2,-6) scale(1,1)"><path fill="none" stroke="#000000" d="M 749.060546875 40 L 749.060546875 50 L 759.060546875 50 L 749.060546875 40" stroke-miterlimit="10"/></g><g transform="translate(2,-6) scale(1,1)"><g><path fill="none" stroke="none"/><text fill="#000000" stroke="none" font-family="Arial" font-size="13px" font-style="normal" font-weight="normal" text-decoration="none" x="669" y="58">StroryScene</text></g></g><g transform="translate(2,-6) scale(1,1)"><path fill="#ffffff" stroke="none" d="M 664 96 L 741.798828125 96 L 751.798828125 106 L 751.798828125 134 L 664 134 L 664 96"/></g><g transform="translate(2,-6) scale(1,1)"><path fill="none" stroke="#000000" d="M 664 96 L 741.798828125 96 L 751.798828125 106 L 751.798828125 134 L 664 134 L 664 96 L 664 96" stroke-miterlimit="10"/></g><g transform="translate(2,-6) scale(1,1)"><path fill="none" stroke="#000000" d="M 741.798828125 96 L 741.798828125 106 L 751.798828125 106 L 741.798828125 96" stroke-miterlimit="10"/></g><g transform="translate(2,-6) scale(1,1)"><g><path fill="none" stroke="none"/><text fill="#000000" stroke="none" font-family="Arial" font-size="13px" font-style="normal" font-weight="normal" text-decoration="none" x="669" y="114">ShopScene</text></g></g><g transform="translate(2,-6) scale(1,1)"><path fill="#ffffff" stroke="none" d="M 664 168 L 746.826171875 168 L 756.826171875 178 L 756.826171875 206 L 664 206 L 664 168"/></g><g transform="translate(2,-6) scale(1,1)"><path fill="none" stroke="#000000" d="M 664 168 L 746.826171875 168 L 756.826171875 178 L 756.826171875 206 L 664 206 L 664 168 L 664 168" stroke-miterlimit="10"/></g><g transform="translate(2,-6) scale(1,1)"><path fill="none" stroke="#000000" d="M 746.826171875 168 L 746.826171875 178 L 756.826171875 178 L 746.826171875 168" stroke-miterlimit="10"/></g><g transform="translate(2,-6) scale(1,1)"><g><path fill="none" stroke="none"/><text fill="#000000" stroke="none" font-family="Arial" font-size="13px" font-style="normal" font-weight="normal" text-decoration="none" x="669" y="186">BattleScene</text></g></g><g transform="translate(2,-6) scale(1,1)"><path fill="#ffffff" stroke="none" d="M 8 440 L 134.091796875 440 L 144.091796875 450 L 144.091796875 478 L 8 478 L 8 440"/></g><g transform="translate(2,-6) scale(1,1)"><path fill="none" stroke="#000000" d="M 8 440 L 134.091796875 440 L 144.091796875 450 L 144.091796875 478 L 8 478 L 8 440 L 8 440" stroke-miterlimit="10"/></g><g transform="translate(2,-6) scale(1,1)"><path fill="none" stroke="#000000" d="M 134.091796875 440 L 134.091796875 450 L 144.091796875 450 L 134.091796875 440" stroke-miterlimit="10"/></g><g transform="translate(2,-6) scale(1,1)"><g><path fill="none" stroke="none"/><text fill="#000000" stroke="none" font-family="Arial" font-size="13px" font-style="normal" font-weight="normal" text-decoration="none" x="13" y="458">CreatePlayerScene</text></g></g><g transform="translate(2,-6) scale(1,1)"><path fill="none" stroke="#000000" d="M 167 485 L 146 479" stroke-miterlimit="10" stroke-dasharray="3"/></g><g transform="translate(2,-6) scale(1,1)"><path fill="none" stroke="#000000" d="M 581 69 L 663 58" stroke-miterlimit="10" stroke-dasharray="3"/></g><g transform="translate(2,-6) scale(1,1)"><path fill="none" stroke="#000000" d="M 597 132 L 663 122" stroke-miterlimit="10" stroke-dasharray="3"/></g><g transform="translate(2,-6) scale(1,1)"><path fill="none" stroke="#000000" d="M 618 202 L 663 195" stroke-miterlimit="10" stroke-dasharray="3"/></g><g transform="translate(2,-6) scale(1,1)"><path fill="#ffffff" stroke="none" d="M 648 256 L 774.244140625 256 L 784.244140625 266 L 784.244140625 309 L 648 309 L 648 256"/></g><g transform="translate(2,-6) scale(1,1)"><path fill="none" stroke="#000000" d="M 648 256 L 774.244140625 256 L 784.244140625 266 L 784.244140625 309 L 648 309 L 648 256 L 648 256" stroke-miterlimit="10"/></g><g transform="translate(2,-6) scale(1,1)"><path fill="none" stroke="#000000" d="M 774.244140625 256 L 774.244140625 266 L 784.244140625 266 L 774.244140625 256" stroke-miterlimit="10"/></g><g transform="translate(2,-6) scale(1,1)"><g><path fill="none" stroke="none"/><text fill="#000000" stroke="none" font-family="Arial" font-size="13px" font-style="normal" font-weight="normal" text-decoration="none" x="653" y="274">・SelectNextScene</text></g></g><g transform="translate(2,-6) scale(1,1)"><g><path fill="none" stroke="none"/><text fill="#000000" stroke="none" font-family="Arial" font-size="13px" font-style="normal" font-weight="normal" text-decoration="none" x="653" y="289">・EffectScene</text></g></g><g transform="translate(2,-6) scale(1,1)"><g><path fill="none" stroke="none"/><text fill="#000000" stroke="none" font-family="Arial" font-size="13px" font-style="normal" font-weight="normal" text-decoration="none" x="653" y="304">... etc(追加実装)</text></g></g><g transform="translate(2,-6) scale(1,1)"><path fill="none" stroke="#000000" d="M 647 280 L 581 278" stroke-miterlimit="10" stroke-dasharray="3"/></g><g transform="translate(2,-6) scale(1,1)"><path fill="none" stroke="#000000" d="M 430 168 L 507 97" stroke-miterlimit="10"/></g><g transform="translate(2,-6) scale(1,1)"><path fill="none" stroke="#000000" d="M 502.3822750512917 106.98381772159713 L 507 97 L 496.6751501620423 100.79440058818581" stroke-miterlimit="10"/></g><g transform="translate(2,-6) scale(1,1)"><path fill="none" stroke="#000000" d="M 430 171 L 495 154" stroke-miterlimit="10"/></g><g transform="translate(2,-6) scale(1,1)"><path fill="none" stroke="#000000" d="M 486.23315329720606 160.64397463042351 L 495 154 L 484.10290373162763 152.49890276203536" stroke-miterlimit="10"/></g><g transform="translate(2,-6) scale(1,1)"><path fill="none" stroke="#000000" d="M 430 173 L 503 195" stroke-miterlimit="10"/></g><g transform="translate(2,-6) scale(1,1)"><path fill="none" stroke="#000000" d="M 492.0549388157775 196.0980144232323 L 503 195 L 494.4842595716264 188.03708646064283" stroke-miterlimit="10"/></g><g transform="translate(2,-6) scale(1,1)"><path fill="none" stroke="#000000" d="M 430 176 L 509 255" stroke-miterlimit="10"/></g><g transform="translate(2,-6) scale(1,1)"><path fill="none" stroke="#000000" d="M 498.83732514237585 250.790482243984 L 509 255 L 504.790482243984 244.83732514237585" stroke-miterlimit="10"/></g><g transform="translate(2,-6) scale(1,1)"><path fill="#C0C0C0" stroke="none" d="M 223 771.5 C 223 764.59644 228.59644 759 235.5 759 C 242.40356 759 248 764.59644 248 771.5 C 248 778.40356 242.40356 784 235.5 784 C 228.59644 784 223 778.40356 223 771.5 Z" opacity="0.2"/></g><g transform="translate(2,-6) scale(1,1)"><path fill="none" stroke="#000000" d="M 216 764.5 C 216 757.59644 221.59644 752 228.5 752 C 235.40356 752 241 757.59644 241 764.5 C 241 771.40356 235.40356 777 228.5 777 C 221.59644 777 216 771.40356 216 764.5 Z" stroke-miterlimit="10"/></g><g transform="translate(2,-6) scale(1,1)"><path fill="#000000" stroke="none" d="M 221 764.5 C 221 760.357864 224.357864 757 228.5 757 C 232.642136 757 236 760.357864 236 764.5 C 236 768.642136 232.642136 772 228.5 772 C 224.357864 772 221 768.642136 221 764.5 Z"/></g><g transform="translate(2,-6) scale(1,1)"><path fill="none" stroke="#000000" d="M 221 681 L 227 751" stroke-miterlimit="10"/></g><g transform="translate(2,-6) scale(1,1)"><path fill="none" stroke="#000000" d="M 221.9379570577379 741.2339505811872 L 227 751 L 230.32623487831444 740.5149553394235" stroke-miterlimit="10"/></g><g transform="translate(2,-6) scale(1,1)"><g><path fill="none" stroke="none"/><text fill="#000000" stroke="none" font-family="Arial" font-size="13px" font-style="normal" font-weight="normal" text-decoration="none" x="238.5" y="732.5">終了シーン</text></g></g></g></svg>