<svg version="1.1" xmlns="http://www.w3.org/2000/svg" xmlns:xlink="http://www.w3.org/1999/xlink" width="694" height="331"><defs/><g><text fill="#eeeeee" stroke="none" font-family="Arial" font-size="24px" font-style="normal" font-weight="normal" text-decoration="none" x="0" y="0">UNREGISTERED</text><text fill="#eeeeee" stroke="none" font-family="Arial" font-size="24px" font-style="normal" font-weight="normal" text-decoration="none" x="0" y="30">UNREGISTERED</text><text fill="#eeeeee" stroke="none" font-family="Arial" font-size="24px" font-style="normal" font-weight="normal" text-decoration="none" x="0" y="60">UNREGISTERED</text><text fill="#eeeeee" stroke="none" font-family="Arial" font-size="24px" font-style="normal" font-weight="normal" text-decoration="none" x="0" y="90">UNREGISTERED</text><text fill="#eeeeee" stroke="none" font-family="Arial" font-size="24px" font-style="normal" font-weight="normal" text-decoration="none" x="0" y="120">UNREGISTERED</text><text fill="#eeeeee" stroke="none" font-family="Arial" font-size="24px" font-style="normal" font-weight="normal" text-decoration="none" x="0" y="150">UNREGISTERED</text><text fill="#eeeeee" stroke="none" font-family="Arial" font-size="24px" font-style="normal" font-weight="normal" text-decoration="none" x="0" y="180">UNREGISTERED</text><text fill="#eeeeee" stroke="none" font-family="Arial" font-size="24px" font-style="normal" font-weight="normal" text-decoration="none" x="0" y="210">UNREGISTERED</text><text fill="#eeeeee" stroke="none" font-family="Arial" font-size="24px" font-style="normal" font-weight="normal" text-decoration="none" x="0" y="240">UNREGISTERED</text><text fill="#eeeeee" stroke="none" font-family="Arial" font-size="24px" font-style="normal" font-weight="normal" text-decoration="none" x="0" y="270">UNREGISTERED</text><text fill="#eeeeee" stroke="none" font-family="Arial" font-size="24px" font-style="normal" font-weight="normal" text-decoration="none" x="0" y="300">UNREGISTERED</text><text fill="#eeeeee" stroke="none" font-family="Arial" font-size="24px" font-style="normal" font-weight="normal" text-decoration="none" x="0" y="330">UNREGISTERED</text><text fill="#eeeeee" stroke="none" font-family="Arial" font-size="24px" font-style="normal" font-weight="normal" text-decoration="none" x="200" y="0">UNREGISTERED</text><text fill="#eeeeee" stroke="none" font-family="Arial" font-size="24px" font-style="normal" font-weight="normal" text-decoration="none" x="200" y="30">UNREGISTERED</text><text fill="#eeeeee" stroke="none" font-family="Arial" font-size="24px" font-style="normal" font-weight="normal" text-decoration="none" x="200" y="60">UNREGISTERED</text><text fill="#eeeeee" stroke="none" font-family="Arial" font-size="24px" font-style="normal" font-weight="normal" text-decoration="none" x="200" y="90">UNREGISTERED</text><text fill="#eeeeee" stroke="none" font-family="Arial" font-size="24px" font-style="normal" font-weight="normal" text-decoration="none" x="200" y="120">UNREGISTERED</text><text fill="#eeeeee" stroke="none" font-family="Arial" font-size="24px" font-style="normal" font-weight="normal" text-decoration="none" x="200" y="150">UNREGISTERED</text><text fill="#eeeeee" stroke="none" font-family="Arial" font-size="24px" font-style="normal" font-weight="normal" text-decoration="none" x="200" y="180">UNREGISTERED</text><text fill="#eeeeee" stroke="none" font-family="Arial" font-size="24px" font-style="normal" font-weight="normal" text-decoration="none" x="200" y="210">UNREGISTERED</text><text fill="#eeeeee" stroke="none" font-family="Arial" font-size="24px" font-style="normal" font-weight="normal" text-decoration="none" x="200" y="240">UNREGISTERED</text><text fill="#eeeeee" stroke="none" font-family="Arial" font-size="24px" font-style="normal" font-weight="normal" text-decoration="none" x="200" y="270">UNREGISTERED</text><text fill="#eeeeee" stroke="none" font-family="Arial" font-size="24px" font-style="normal" font-weight="normal" text-decoration="none" x="200" y="300">UNREGISTERED</text><text fill="#eeeeee" stroke="none" font-family="Arial" font-size="24px" font-style="normal" font-weight="normal" text-decoration="none" x="200" y="330">UNREGISTERED</text><text fill="#eeeeee" stroke="none" font-family="Arial" font-size="24px" font-style="normal" font-weight="normal" text-decoration="none" x="400" y="0">UNREGISTERED</text><text fill="#eeeeee" stroke="none" font-family="Arial" font-size="24px" font-style="normal" font-weight="normal" text-decoration="none" x="400" y="30">UNREGISTERED</text><text fill="#eeeeee" stroke="none" font-family="Arial" font-size="24px" font-style="normal" font-weight="normal" text-decoration="none" x="400" y="60">UNREGISTERED</text><text fill="#eeeeee" stroke="none" font-family="Arial" font-size="24px" font-style="normal" font-weight="normal" text-decoration="none" x="400" y="90">UNREGISTERED</text><text fill="#eeeeee" stroke="none" font-family="Arial" font-size="24px" font-style="normal" font-weight="normal" text-decoration="none" x="400" y="120">UNREGISTERED</text><text fill="#eeeeee" stroke="none" font-family="Arial" font-size="24px" font-style="normal" font-weight="normal" text-decoration="none" x="400" y="150">UNREGISTERED</text><text fill="#eeeeee" stroke="none" font-family="Arial" font-size="24px" font-style="normal" font-weight="normal" text-decoration="none" x="400" y="180">UNREGISTERED</text><text fill="#eeeeee" stroke="none" font-family="Arial" font-size="24px" font-style="normal" font-weight="normal" text-decoration="none" x="400" y="210">UNREGISTERED</text><text fill="#eeeeee" stroke="none" font-family="Arial" font-size="24px" font-style="normal" font-weight="normal" text-decoration="none" x="400" y="240">UNREGISTERED</text><text fill="#eeeeee" stroke="none" font-family="Arial" font-size="24px" font-style="normal" font-weight="normal" text-decoration="none" x="400" y="270">UNREGISTERED</text><text fill="#eeeeee" stroke="none" font-family="Arial" font-size="24px" font-style="normal" font-weight="normal" text-decoration="none" x="400" y="300">UNREGISTERED</text><text fill="#eeeeee" stroke="none" font-family="Arial" font-size="24px" font-style="normal" font-weight="normal" text-decoration="none" x="400" y="330">UNREGISTERED</text><text fill="#eeeeee" stroke="none" font-family="Arial" font-size="24px" font-style="normal" font-weight="normal" text-decoration="none" x="600" y="0">UNREGISTERED</text><text fill="#eeeeee" stroke="none" font-family="Arial" font-size="24px" font-style="normal" font-weight="normal" text-decoration="none" x="600" y="30">UNREGISTERED</text><text fill="#eeeeee" stroke="none" font-family="Arial" font-size="24px" font-style="normal" font-weight="normal" text-decoration="none" x="600" y="60">UNREGISTERED</text><text fill="#eeeeee" stroke="none" font-family="Arial" font-size="24px" font-style="normal" font-weight="normal" text-decoration="none" x="600" y="90">UNREGISTERED</text><text fill="#eeeeee" stroke="none" font-family="Arial" font-size="24px" font-style="normal" font-weight="normal" text-decoration="none" x="600" y="120">UNREGISTERED</text><text fill="#eeeeee" stroke="none" font-family="Arial" font-size="24px" font-style="normal" font-weight="normal" text-decoration="none" x="600" y="150">UNREGISTERED</text><text fill="#eeeeee" stroke="none" font-family="Arial" font-size="24px" font-style="normal" font-weight="normal" text-decoration="none" x="600" y="180">UNREGISTERED</text><text fill="#eeeeee" stroke="none" font-family="Arial" font-size="24px" font-style="normal" font-weight="normal" text-decoration="none" x="600" y="210">UNREGISTERED</text><text fill="#eeeeee" stroke="none" font-family="Arial" font-size="24px" font-style="normal" font-weight="normal" text-decoration="none" x="600" y="240">UNREGISTERED</text><text fill="#eeeeee" stroke="none" font-family="Arial" font-size="24px" font-style="normal" font-weight="normal" text-decoration="none" x="600" y="270">UNREGISTERED</text><text fill="#eeeeee" stroke="none" font-family="Arial" font-size="24px" font-style="normal" font-weight="normal" text-decoration="none" x="600" y="300">UNREGISTERED</text><text fill="#eeeeee" stroke="none" font-family="Arial" font-size="24px" font-style="normal" font-weight="normal" text-decoration="none" x="600" y="330">UNREGISTERED</text><g transform="translate(-12,-30) scale(1,1)"><path fill="#ffffff" stroke="none" d="M 87.82072727272727 129.68 C 87.82072727272727 124.886167936 91.70656959767273 121 96.5 121 C 101.29343040232727 121 105.17927272727273 124.886167936 105.17927272727273 129.68 C 105.17927272727273 134.47383206400002 101.29343040232727 138.36 96.5 138.36 C 91.70656959767273 138.36 87.82072727272727 134.47383206400002 87.82072727272727 129.68 Z"/></g><g transform="translate(-12,-30) scale(1,1)"><path fill="none" stroke="#000000" d="M 87.82072727272727 129.68 C 87.82072727272727 124.886167936 91.70656959767273 121 96.5 121 C 101.29343040232727 121 105.17927272727273 124.886167936 105.17927272727273 129.68 C 105.17927272727273 134.47383206400002 101.29343040232727 138.36 96.5 138.36 C 91.70656959767273 138.36 87.82072727272727 134.47383206400002 87.82072727272727 129.68 Z" stroke-miterlimit="10"/></g><g transform="translate(-12,-30) scale(1,1)"><path fill="none" stroke="#000000" d="M 96.5 138.36 L 96.5 155.64" stroke-miterlimit="10"/></g><g transform="translate(-12,-30) scale(1,1)"><path fill="none" stroke="#000000" d="M 87.31018181818182 144.84 L 105.68981818181818 144.84" stroke-miterlimit="10"/></g><g transform="translate(-12,-30) scale(1,1)"><path fill="none" stroke="#000000" d="M 96.5 155.64 L 83.73636363636363 173" stroke-miterlimit="10"/></g><g transform="translate(-12,-30) scale(1,1)"><path fill="none" stroke="#000000" d="M 96.5 155.64 L 109.26363636363637 173" stroke-miterlimit="10"/></g><g transform="translate(-12,-30) scale(1,1)"><g><path fill="none" stroke="none"/><text fill="#000000" stroke="none" font-family="Arial" font-size="13px" font-style="normal" font-weight="bold" text-decoration="none" x="44.5" y="193.5">ゲームブック作者</text></g></g><g transform="translate(-12,-30) scale(1,1)"><path fill="#C0C0C0" stroke="none" d="M 191 64 C 191 54.6111584 243.1588208 47 307.5 47 C 371.8411792 47 424 54.6111584 424 64 C 424 73.3888416 371.8411792 81 307.5 81 C 243.1588208 81 191 73.3888416 191 64 Z" opacity="0.2"/></g><g transform="translate(-12,-30) scale(1,1)"><path fill="#ffffff" stroke="none" d="M 184 57 C 184 47.6111584 236.1588208 40 300.5 40 C 364.8411792 40 417 47.6111584 417 57 C 417 66.3888416 364.8411792 74 300.5 74 C 236.1588208 74 184 66.3888416 184 57 Z"/></g><g transform="translate(-12,-30) scale(1,1)"><path fill="none" stroke="#000000" d="M 184 57 C 184 47.6111584 236.1588208 40 300.5 40 C 364.8411792 40 417 47.6111584 417 57 C 417 66.3888416 364.8411792 74 300.5 74 C 236.1588208 74 184 66.3888416 184 57 Z" stroke-miterlimit="10"/></g><g transform="translate(-12,-30) scale(1,1)"><g><path fill="none" stroke="none"/><text fill="#000000" stroke="none" font-family="Arial" font-size="13px" font-style="normal" font-weight="bold" text-decoration="none" x="222.5" y="64">ストーリーテキストの作成</text></g></g><g transform="translate(-12,-30) scale(1,1)"><path fill="#ffffff" stroke="none" d="M 457.32072727272725 281.68 C 457.32072727272725 276.886167936 461.20656959767274 273 466 273 C 470.79343040232726 273 474.67927272727275 276.886167936 474.67927272727275 281.68 C 474.67927272727275 286.473832064 470.79343040232726 290.36 466 290.36 C 461.20656959767274 290.36 457.32072727272725 286.473832064 457.32072727272725 281.68 Z"/></g><g transform="translate(-12,-30) scale(1,1)"><path fill="none" stroke="#000000" d="M 457.32072727272725 281.68 C 457.32072727272725 276.886167936 461.20656959767274 273 466 273 C 470.79343040232726 273 474.67927272727275 276.886167936 474.67927272727275 281.68 C 474.67927272727275 286.473832064 470.79343040232726 290.36 466 290.36 C 461.20656959767274 290.36 457.32072727272725 286.473832064 457.32072727272725 281.68 Z" stroke-miterlimit="10"/></g><g transform="translate(-12,-30) scale(1,1)"><path fill="none" stroke="#000000" d="M 466 290.36 L 466 307.64" stroke-miterlimit="10"/></g><g transform="translate(-12,-30) scale(1,1)"><path fill="none" stroke="#000000" d="M 456.81018181818183 296.84 L 475.18981818181817 296.84" stroke-miterlimit="10"/></g><g transform="translate(-12,-30) scale(1,1)"><path fill="none" stroke="#000000" d="M 466 307.64 L 453.23636363636365 325" stroke-miterlimit="10"/></g><g transform="translate(-12,-30) scale(1,1)"><path fill="none" stroke="#000000" d="M 466 307.64 L 478.76363636363635 325" stroke-miterlimit="10"/></g><g transform="translate(-12,-30) scale(1,1)"><g><path fill="none" stroke="none"/><text fill="#000000" stroke="none" font-family="Arial" font-size="13px" font-style="normal" font-weight="bold" text-decoration="none" x="420.5" y="345.5">ゲームプレーヤ</text></g></g><g transform="translate(-12,-30) scale(1,1)"><path fill="#C0C0C0" stroke="none" d="M 215 168 C 215 158.6111584 238.505048 151 267.5 151 C 296.494952 151 320 158.6111584 320 168 C 320 177.3888416 296.494952 185 267.5 185 C 238.505048 185 215 177.3888416 215 168 Z" opacity="0.2"/></g><g transform="translate(-12,-30) scale(1,1)"><path fill="#ffffff" stroke="none" d="M 208 161 C 208 151.6111584 231.505048 144 260.5 144 C 289.494952 144 313 151.6111584 313 161 C 313 170.3888416 289.494952 178 260.5 178 C 231.505048 178 208 170.3888416 208 161 Z"/></g><g transform="translate(-12,-30) scale(1,1)"><path fill="none" stroke="#000000" d="M 208 161 C 208 151.6111584 231.505048 144 260.5 144 C 289.494952 144 313 151.6111584 313 161 C 313 170.3888416 289.494952 178 260.5 178 C 231.505048 178 208 170.3888416 208 161 Z" stroke-miterlimit="10"/></g><g transform="translate(-12,-30) scale(1,1)"><g><path fill="none" stroke="none"/><text fill="#000000" stroke="none" font-family="Arial" font-size="13px" font-style="normal" font-weight="bold" text-decoration="none" x="228" y="168">実行テスト</text></g></g><g transform="translate(-12,-30) scale(1,1)"><path fill="#C0C0C0" stroke="none" d="M 135 256 C 135 246.6111584 187.83039359999998 239 253 239 C 318.1696064 239 371 246.6111584 371 256 C 371 265.3888416 318.1696064 273 253 273 C 187.83039359999998 273 135 265.3888416 135 256 Z" opacity="0.2"/></g><g transform="translate(-12,-30) scale(1,1)"><path fill="#ffffff" stroke="none" d="M 128 249 C 128 239.6111584 180.83039359999998 232 246 232 C 311.1696064 232 364 239.6111584 364 249 C 364 258.3888416 311.1696064 266 246 266 C 180.83039359999998 266 128 258.3888416 128 249 Z"/></g><g transform="translate(-12,-30) scale(1,1)"><path fill="none" stroke="#000000" d="M 128 249 C 128 239.6111584 180.83039359999998 232 246 232 C 311.1696064 232 364 239.6111584 364 249 C 364 258.3888416 311.1696064 266 246 266 C 180.83039359999998 266 128 258.3888416 128 249 Z" stroke-miterlimit="10"/></g><g transform="translate(-12,-30) scale(1,1)"><g><path fill="none" stroke="none"/><text fill="#000000" stroke="none" font-family="Arial" font-size="13px" font-style="normal" font-weight="bold" text-decoration="none" x="174.12548828125" y="256">TextRpg.jarとともに配布</text></g></g><g transform="translate(-12,-30) scale(1,1)"><path fill="#C0C0C0" stroke="none" d="M 359 160 C 359 150.6111584 436.0070144 143 531 143 C 625.9929856 143 703 150.6111584 703 160 C 703 169.3888416 625.9929856 177 531 177 C 436.0070144 177 359 169.3888416 359 160 Z" opacity="0.2"/></g><g transform="translate(-12,-30) scale(1,1)"><path fill="#ffffff" stroke="none" d="M 352 153 C 352 143.6111584 429.0070144 136 524 136 C 618.9929856 136 696 143.6111584 696 153 C 696 162.3888416 618.9929856 170 524 170 C 429.0070144 170 352 162.3888416 352 153 Z"/></g><g transform="translate(-12,-30) scale(1,1)"><path fill="none" stroke="#000000" d="M 352 153 C 352 143.6111584 429.0070144 136 524 136 C 618.9929856 136 696 143.6111584 696 153 C 696 162.3888416 618.9929856 170 524 170 C 429.0070144 170 352 162.3888416 352 153 Z" stroke-miterlimit="10"/></g><g transform="translate(-12,-30) scale(1,1)"><g><path fill="none" stroke="none"/><text fill="#000000" stroke="none" font-family="Arial" font-size="13px" font-style="normal" font-weight="bold" text-decoration="none" x="407" y="160">作成された圧縮ファイルをダウンロード</text></g></g><g transform="translate(-12,-30) scale(1,1)"><path fill="#C0C0C0" stroke="none" d="M 511 320 C 511 310.6111584 533.6096176 303 561.5 303 C 589.3903824 303 612 310.6111584 612 320 C 612 329.3888416 589.3903824 337 561.5 337 C 533.6096176 337 511 329.3888416 511 320 Z" opacity="0.2"/></g><g transform="translate(-12,-30) scale(1,1)"><path fill="#ffffff" stroke="none" d="M 504 313 C 504 303.6111584 526.6096176 296 554.5 296 C 582.3903824 296 605 303.6111584 605 313 C 605 322.3888416 582.3903824 330 554.5 330 C 526.6096176 330 504 322.3888416 504 313 Z"/></g><g transform="translate(-12,-30) scale(1,1)"><path fill="none" stroke="#000000" d="M 504 313 C 504 303.6111584 526.6096176 296 554.5 296 C 582.3903824 296 605 303.6111584 605 313 C 605 322.3888416 582.3903824 330 554.5 330 C 526.6096176 330 504 322.3888416 504 313 Z" stroke-miterlimit="10"/></g><g transform="translate(-12,-30) scale(1,1)"><g><path fill="none" stroke="none"/><text fill="#000000" stroke="none" font-family="Arial" font-size="13px" font-style="normal" font-weight="bold" text-decoration="none" x="541.5" y="320">遊ぶ</text></g></g><g transform="translate(-12,-30) scale(1,1)"><path fill="none" stroke="#000000" d="M 154 130 L 264 75" stroke-miterlimit="10"/></g><g transform="translate(-12,-30) scale(1,1)"><g><path fill="none" stroke="none"/><text fill="#000000" stroke="none" font-family="Arial" font-size="13px" font-style="normal" font-weight="normal" text-decoration="none" x="22.92822265625" y="99.5">+物語をゲームブック的に作成</text></g></g><g transform="translate(-12,-30) scale(1,1)"><path fill="none" stroke="#000000" d="M 293 75 L 267 143" stroke-miterlimit="10"/></g><g transform="translate(-12,-30) scale(1,1)"><g><path fill="none" stroke="none"/><text fill="#000000" stroke="none" font-family="Arial" font-size="13px" font-style="normal" font-weight="normal" text-decoration="none" x="285.92822265625" y="120.5">+作成したら動くかテストする</text></g></g><g transform="translate(-12,-30) scale(1,1)"><path fill="none" stroke="#000000" d="M 257 179 L 249 231" stroke-miterlimit="10"/></g><g transform="translate(-12,-30) scale(1,1)"><g><path fill="none" stroke="none"/><text fill="#000000" stroke="none" font-family="Arial" font-size="13px" font-style="normal" font-weight="normal" text-decoration="none" x="120.585205078125" y="285.5">+テストが終わったらWebなどにアップ</text></g></g><g transform="translate(-12,-30) scale(1,1)"><path fill="none" stroke="#000000" d="M 298 231 L 472 171" stroke-miterlimit="10"/></g><g transform="translate(-12,-30) scale(1,1)"><g><path fill="none" stroke="none"/><text fill="#000000" stroke="none" font-family="Arial" font-size="13px" font-style="normal" font-weight="normal" text-decoration="none" x="346.92822265625" y="227.5">+作品がダウンロードされる</text></g></g><g transform="translate(-12,-30) scale(1,1)"><path fill="none" stroke="#000000" d="M 527 171 L 551 295" stroke-miterlimit="10"/></g><g transform="translate(-12,-30) scale(1,1)"><g><path fill="none" stroke="none"/><text fill="#000000" stroke="none" font-family="Arial" font-size="13px" font-style="normal" font-weight="normal" text-decoration="none" x="550.92822265625" y="228.5">+遊んでみる</text></g></g></g></svg>