<svg version="1.1" xmlns="http://www.w3.org/2000/svg" xmlns:xlink="http://www.w3.org/1999/xlink" width="820.8857421875" height="268"><defs/><g><text fill="#eeeeee" stroke="none" font-family="Arial" font-size="24px" font-style="normal" font-weight="normal" text-decoration="none" x="0" y="0">UNREGISTERED</text><text fill="#eeeeee" stroke="none" font-family="Arial" font-size="24px" font-style="normal" font-weight="normal" text-decoration="none" x="0" y="30">UNREGISTERED</text><text fill="#eeeeee" stroke="none" font-family="Arial" font-size="24px" font-style="normal" font-weight="normal" text-decoration="none" x="0" y="60">UNREGISTERED</text><text fill="#eeeeee" stroke="none" font-family="Arial" font-size="24px" font-style="normal" font-weight="normal" text-decoration="none" x="0" y="90">UNREGISTERED</text><text fill="#eeeeee" stroke="none" font-family="Arial" font-size="24px" font-style="normal" font-weight="normal" text-decoration="none" x="0" y="120">UNREGISTERED</text><text fill="#eeeeee" stroke="none" font-family="Arial" font-size="24px" font-style="normal" font-weight="normal" text-decoration="none" x="0" y="150">UNREGISTERED</text><text fill="#eeeeee" stroke="none" font-family="Arial" font-size="24px" font-style="normal" font-weight="normal" text-decoration="none" x="0" y="180">UNREGISTERED</text><text fill="#eeeeee" stroke="none" font-family="Arial" font-size="24px" font-style="normal" font-weight="normal" text-decoration="none" x="0" y="210">UNREGISTERED</text><text fill="#eeeeee" stroke="none" font-family="Arial" font-size="24px" font-style="normal" font-weight="normal" text-decoration="none" x="0" y="240">UNREGISTERED</text><text fill="#eeeeee" stroke="none" font-family="Arial" font-size="24px" font-style="normal" font-weight="normal" text-decoration="none" x="200" y="0">UNREGISTERED</text><text fill="#eeeeee" stroke="none" font-family="Arial" font-size="24px" font-style="normal" font-weight="normal" text-decoration="none" x="200" y="30">UNREGISTERED</text><text fill="#eeeeee" stroke="none" font-family="Arial" font-size="24px" font-style="normal" font-weight="normal" text-decoration="none" x="200" y="60">UNREGISTERED</text><text fill="#eeeeee" stroke="none" font-family="Arial" font-size="24px" font-style="normal" font-weight="normal" text-decoration="none" x="200" y="90">UNREGISTERED</text><text fill="#eeeeee" stroke="none" font-family="Arial" font-size="24px" font-style="normal" font-weight="normal" text-decoration="none" x="200" y="120">UNREGISTERED</text><text fill="#eeeeee" stroke="none" font-family="Arial" font-size="24px" font-style="normal" font-weight="normal" text-decoration="none" x="200" y="150">UNREGISTERED</text><text fill="#eeeeee" stroke="none" font-family="Arial" font-size="24px" font-style="normal" font-weight="normal" text-decoration="none" x="200" y="180">UNREGISTERED</text><text fill="#eeeeee" stroke="none" font-family="Arial" font-size="24px" font-style="normal" font-weight="normal" text-decoration="none" x="200" y="210">UNREGISTERED</text><text fill="#eeeeee" stroke="none" font-family="Arial" font-size="24px" font-style="normal" font-weight="normal" text-decoration="none" x="200" y="240">UNREGISTERED</text><text fill="#eeeeee" stroke="none" font-family="Arial" font-size="24px" font-style="normal" font-weight="normal" text-decoration="none" x="400" y="0">UNREGISTERED</text><text fill="#eeeeee" stroke="none" font-family="Arial" font-size="24px" font-style="normal" font-weight="normal" text-decoration="none" x="400" y="30">UNREGISTERED</text><text fill="#eeeeee" stroke="none" font-family="Arial" font-size="24px" font-style="normal" font-weight="normal" text-decoration="none" x="400" y="60">UNREGISTERED</text><text fill="#eeeeee" stroke="none" font-family="Arial" font-size="24px" font-style="normal" font-weight="normal" text-decoration="none" x="400" y="90">UNREGISTERED</text><text fill="#eeeeee" stroke="none" font-family="Arial" font-size="24px" font-style="normal" font-weight="normal" text-decoration="none" x="400" y="120">UNREGISTERED</text><text fill="#eeeeee" stroke="none" font-family="Arial" font-size="24px" font-style="normal" font-weight="normal" text-decoration="none" x="400" y="150">UNREGISTERED</text><text fill="#eeeeee" stroke="none" font-family="Arial" font-size="24px" font-style="normal" font-weight="normal" text-decoration="none" x="400" y="180">UNREGISTERED</text><text fill="#eeeeee" stroke="none" font-family="Arial" font-size="24px" font-style="normal" font-weight="normal" text-decoration="none" x="400" y="210">UNREGISTERED</text><text fill="#eeeeee" stroke="none" font-family="Arial" font-size="24px" font-style="normal" font-weight="normal" text-decoration="none" x="400" y="240">UNREGISTERED</text><text fill="#eeeeee" stroke="none" font-family="Arial" font-size="24px" font-style="normal" font-weight="normal" text-decoration="none" x="600" y="0">UNREGISTERED</text><text fill="#eeeeee" stroke="none" font-family="Arial" font-size="24px" font-style="normal" font-weight="normal" text-decoration="none" x="600" y="30">UNREGISTERED</text><text fill="#eeeeee" stroke="none" font-family="Arial" font-size="24px" font-style="normal" font-weight="normal" text-decoration="none" x="600" y="60">UNREGISTERED</text><text fill="#eeeeee" stroke="none" font-family="Arial" font-size="24px" font-style="normal" font-weight="normal" text-decoration="none" x="600" y="90">UNREGISTERED</text><text fill="#eeeeee" stroke="none" font-family="Arial" font-size="24px" font-style="normal" font-weight="normal" text-decoration="none" x="600" y="120">UNREGISTERED</text><text fill="#eeeeee" stroke="none" font-family="Arial" font-size="24px" font-style="normal" font-weight="normal" text-decoration="none" x="600" y="150">UNREGISTERED</text><text fill="#eeeeee" stroke="none" font-family="Arial" font-size="24px" font-style="normal" font-weight="normal" text-decoration="none" x="600" y="180">UNREGISTERED</text><text fill="#eeeeee" stroke="none" font-family="Arial" font-size="24px" font-style="normal" font-weight="normal" text-decoration="none" x="600" y="210">UNREGISTERED</text><text fill="#eeeeee" stroke="none" font-family="Arial" font-size="24px" font-style="normal" font-weight="normal" text-decoration="none" x="600" y="240">UNREGISTERED</text><text fill="#eeeeee" stroke="none" font-family="Arial" font-size="24px" font-style="normal" font-weight="normal" text-decoration="none" x="800" y="0">UNREGISTERED</text><text fill="#eeeeee" stroke="none" font-family="Arial" font-size="24px" font-style="normal" font-weight="normal" text-decoration="none" x="800" y="30">UNREGISTERED</text><text fill="#eeeeee" stroke="none" font-family="Arial" font-size="24px" font-style="normal" font-weight="normal" text-decoration="none" x="800" y="60">UNREGISTERED</text><text fill="#eeeeee" stroke="none" font-family="Arial" font-size="24px" font-style="normal" font-weight="normal" text-decoration="none" x="800" y="90">UNREGISTERED</text><text fill="#eeeeee" stroke="none" font-family="Arial" font-size="24px" font-style="normal" font-weight="normal" text-decoration="none" x="800" y="120">UNREGISTERED</text><text fill="#eeeeee" stroke="none" font-family="Arial" font-size="24px" font-style="normal" font-weight="normal" text-decoration="none" x="800" y="150">UNREGISTERED</text><text fill="#eeeeee" stroke="none" font-family="Arial" font-size="24px" font-style="normal" font-weight="normal" text-decoration="none" x="800" y="180">UNREGISTERED</text><text fill="#eeeeee" stroke="none" font-family="Arial" font-size="24px" font-style="normal" font-weight="normal" text-decoration="none" x="800" y="210">UNREGISTERED</text><text fill="#eeeeee" stroke="none" font-family="Arial" font-size="24px" font-style="normal" font-weight="normal" text-decoration="none" x="800" y="240">UNREGISTERED</text><g transform="translate(-30,-46) scale(1,1)"><rect fill="#ffffff" stroke="none" x="280" y="56" width="206.93505859375" height="32"/></g><g transform="translate(-30,-46) scale(1,1)"><path fill="none" stroke="#000000" d="M 280 56 L 486.93505859375 56 L 486.93505859375 88 L 280 88 L 280 56 Z Z" stroke-miterlimit="10"/></g><g transform="translate(-30,-46) scale(1,1)"><g><path fill="none" stroke="none"/><text fill="#000000" stroke="none" font-family="Arial" font-size="13px" font-style="normal" font-weight="normal" text-decoration="none" x="292.08349609375" y="78.5">TextRpgLogicのインスタンス化</text></g></g><g transform="translate(-30,-46) scale(1,1)"><rect fill="#ffffff" stroke="none" x="248" y="128" width="276.53076171875" height="32"/></g><g transform="translate(-30,-46) scale(1,1)"><path fill="none" stroke="#000000" d="M 248 128 L 524.53076171875 128 L 524.53076171875 160 L 248 160 L 248 128 Z Z" stroke-miterlimit="10"/></g><g transform="translate(-30,-46) scale(1,1)"><g><path fill="none" stroke="none"/><text fill="#000000" stroke="none" font-family="Arial" font-size="13px" font-style="normal" font-weight="normal" text-decoration="none" x="262.44482421875" y="150.5">RpgLogicとして変数"lgameLogic"にセット</text></g></g><g transform="translate(-30,-46) scale(1,1)"><rect fill="#ffffff" stroke="none" x="208" y="200" width="374.11962890625" height="32"/></g><g transform="translate(-30,-46) scale(1,1)"><path fill="none" stroke="#000000" d="M 208 200 L 582.11962890625 200 L 582.11962890625 232 L 208 232 L 208 200 Z Z" stroke-miterlimit="10"/></g><g transform="translate(-30,-46) scale(1,1)"><g><path fill="none" stroke="none"/><text fill="#000000" stroke="none" font-family="Arial" font-size="13px" font-style="normal" font-weight="normal" text-decoration="none" x="223.476318359375" y="222.5">TextRpgGameEngineにgameLogicを渡してインスタンス化</text></g></g><g transform="translate(-30,-46) scale(1,1)"><rect fill="#ffffff" stroke="none" x="256" y="272" width="279.9775390625" height="32"/></g><g transform="translate(-30,-46) scale(1,1)"><path fill="none" stroke="#000000" d="M 256 272 L 535.9775390625 272 L 535.9775390625 304 L 256 304 L 256 272 Z Z" stroke-miterlimit="10"/></g><g transform="translate(-30,-46) scale(1,1)"><g><path fill="none" stroke="none"/><text fill="#000000" stroke="none" font-family="Arial" font-size="13px" font-style="normal" font-weight="normal" text-decoration="none" x="269.203857421875" y="294.5">TextRpgGameEngineのスレッドを開始する</text></g></g><g transform="translate(-30,-46) scale(1,1)"><path fill="none" stroke="#000000" d="M 380 88 L 380 128" stroke-miterlimit="10"/></g><g transform="translate(-30,-46) scale(1,1)"><path fill="#000000" stroke="none" d="M 375.790482243984 117.83732514237585 L 380 128 L 384.209517756016 117.83732514237585"/></g><g transform="translate(-30,-46) scale(1,1)"><path fill="none" stroke="#000000" d="M 375.790482243984 117.83732514237585 L 380 128 L 384.209517756016 117.83732514237585 L 375.790482243984 117.83732514237585" stroke-miterlimit="10"/></g><g transform="translate(-30,-46) scale(1,1)"><path fill="none" stroke="#000000" d="M 383 160 L 383 200" stroke-miterlimit="10"/></g><g transform="translate(-30,-46) scale(1,1)"><path fill="#000000" stroke="none" d="M 378.790482243984 189.83732514237585 L 383 200 L 387.209517756016 189.83732514237585"/></g><g transform="translate(-30,-46) scale(1,1)"><path fill="none" stroke="#000000" d="M 378.790482243984 189.83732514237585 L 383 200 L 387.209517756016 189.83732514237585 L 378.790482243984 189.83732514237585" stroke-miterlimit="10"/></g><g transform="translate(-30,-46) scale(1,1)"><path fill="none" stroke="#000000" d="M 390 232 L 390 272" stroke-miterlimit="10"/></g><g transform="translate(-30,-46) scale(1,1)"><path fill="#000000" stroke="none" d="M 385.790482243984 261.83732514237585 L 390 272 L 394.209517756016 261.83732514237585"/></g><g transform="translate(-30,-46) scale(1,1)"><path fill="none" stroke="#000000" d="M 385.790482243984 261.83732514237585 L 390 272 L 394.209517756016 261.83732514237585 L 385.790482243984 261.83732514237585" stroke-miterlimit="10"/></g><g transform="translate(-30,-46) scale(1,1)"><rect fill="#ffffff" stroke="none" x="600" y="160" width="240.8857421875" height="22"/></g><g transform="translate(-30,-46) scale(1,1)"><path fill="none" stroke="#000000" d="M 600 160 L 840.8857421875 160 L 840.8857421875 182 L 600 182 L 600 160 Z Z" stroke-miterlimit="10"/></g><g transform="translate(-30,-46) scale(1,1)"><path fill="none" stroke="#000000" d="M 632.39453125 160 L 632.39453125 182" stroke-miterlimit="10"/></g><g transform="translate(-30,-46) scale(1,1)"><g><path fill="none" stroke="none"/><text fill="#000000" stroke="none" font-family="Arial" font-size="13px" font-style="normal" font-weight="normal" text-decoration="none" x="640.598388671875" y="177.5">TextRpgGameEngine処理フロー</text></g></g><g transform="translate(-30,-46) scale(1,1)"><g><path fill="none" stroke="none"/><text fill="#000000" stroke="none" font-family="Arial" font-size="13px" font-style="normal" font-weight="bold" text-decoration="none" x="606.444091796875" y="177.5">link</text></g></g><g transform="translate(-30,-46) scale(1,1)"><path fill="none" stroke="#000000" d="M 518 199 L 633 183" stroke-miterlimit="10" stroke-dasharray="3"/></g><g transform="translate(-30,-46) scale(1,1)"><rect fill="#ffffff" stroke="none" x="40" y="96" width="193.31640625" height="22"/></g><g transform="translate(-30,-46) scale(1,1)"><path fill="none" stroke="#000000" d="M 40 96 L 233.31640625 96 L 233.31640625 118 L 40 118 L 40 96 Z Z" stroke-miterlimit="10"/></g><g transform="translate(-30,-46) scale(1,1)"><path fill="none" stroke="#000000" d="M 72.39453125 96 L 72.39453125 118" stroke-miterlimit="10"/></g><g transform="translate(-30,-46) scale(1,1)"><g><path fill="none" stroke="none"/><text fill="#000000" stroke="none" font-family="Arial" font-size="13px" font-style="normal" font-weight="normal" text-decoration="none" x="84.635498046875" y="113.5">RpgLogic設定読み込み</text></g></g><g transform="translate(-30,-46) scale(1,1)"><g><path fill="none" stroke="none"/><text fill="#000000" stroke="none" font-family="Arial" font-size="13px" font-style="normal" font-weight="bold" text-decoration="none" x="46.444091796875" y="113.5">link</text></g></g><g transform="translate(-30,-46) scale(1,1)"><path fill="none" stroke="#000000" d="M 271 127 L 217 119" stroke-miterlimit="10" stroke-dasharray="3"/></g></g></svg>